<?xml version="1.0" encoding="UTF-8" standalone="no"?>
<!-- Generator: Adobe Illustrator 16.0.2, SVG Export Plug-In . SVG Version: 6.00 Build 0)  -->

<svg
   xmlns:dc="http://purl.org/dc/elements/1.1/"
   xmlns:cc="http://creativecommons.org/ns#"
   xmlns:rdf="http://www.w3.org/1999/02/22-rdf-syntax-ns#"
   xmlns:svg="http://www.w3.org/2000/svg"
   xmlns="http://www.w3.org/2000/svg"
   xmlns:sodipodi="http://sodipodi.sourceforge.net/DTD/sodipodi-0.dtd"
   xmlns:inkscape="http://www.inkscape.org/namespaces/inkscape"
   version="1.1"
   x="0px"
   y="0px"
   width="810.17316"
   height="311.51593"
   viewBox="0 0 810.17316 311.51593"
   enable-background="new 0 0 864 864"
   xml:space="preserve"
   id="svg181"
   sodipodi:docname="rip11web.svg"
   inkscape:version="0.92.3 (2405546, 2018-03-11)"><metadata
   id="metadata187"><rdf:RDF><cc:Work
       rdf:about=""><dc:format>image/svg+xml</dc:format><dc:type
         rdf:resource="http://purl.org/dc/dcmitype/StillImage" /><dc:title></dc:title></cc:Work></rdf:RDF></metadata><defs
   id="defs185" /><sodipodi:namedview
   pagecolor="#ffffff"
   bordercolor="#666666"
   borderopacity="1"
   objecttolerance="10"
   gridtolerance="10"
   guidetolerance="10"
   inkscape:pageopacity="0"
   inkscape:pageshadow="2"
   inkscape:window-width="2736"
   inkscape:window-height="1699"
   id="namedview183"
   showgrid="false"
   inkscape:zoom="1.5451593"
   inkscape:cx="316.07446"
   inkscape:cy="155.75796"
   inkscape:window-x="-13"
   inkscape:window-y="-13"
   inkscape:window-maximized="1"
   inkscape:current-layer="svg181" />
<g
   id="logo"
   display="none"
   style="display:none"
   transform="translate(-26.913416,-276.24204)">
	<path
   display="inline"
   d="m 621.466,482.089 c 3.131,7.337 8.013,13.75 14.127,18.701 v -18.701 z m 14.116,-56.747 c -10.976,8.897 -17.994,22.488 -17.994,37.719 0,3.261 0.328,6.433 0.935,9.515 h 17.06 v -47.234 z m 78.043,47.233 c 0.606,-3.072 0.935,-6.254 0.935,-9.515 0,-26.803 -21.713,-48.525 -48.485,-48.525 -2.008,0 -3.987,0.139 -5.936,0.378 v 57.662 z m -53.486,38.644 c 1.948,0.238 3.927,0.378 5.935,0.378 20.032,0 37.222,-12.159 44.619,-29.508 h -50.554 z m 160.33,-98.633 h -13.77 v 3.48 c 0.249,-0.03 0.518,-0.04 0.826,-0.04 h 3.977 v 11.761 c 0,0.159 -0.02,0.328 -0.07,0.497 h 3.907 c -0.029,-0.188 -0.04,-0.357 -0.04,-0.517 v -11.741 h 4.305 c 0.328,0 0.627,0.029 0.865,0.089 z m 18.989,15.201 v -15.201 h -4.523 l -3.688,10.439 -3.559,-10.439 h -4.523 v 15.201 c 0,0.159 -0.011,0.328 -0.021,0.497 h 3.688 c -0.03,-0.188 -0.04,-0.357 -0.04,-0.517 v -7.069 l 2.654,7.586 h 3.609 l 2.783,-7.546 v 7.019 c 0,0.169 -0.01,0.348 -0.02,0.518 h 3.669 c -0.019,-0.17 -0.029,-0.329 -0.029,-0.488 z m -743.98,26.912 c -20.729,-6.104 -28.543,-12.775 -28.205,-21.782 0.358,-9.415 7.665,-15.737 23.253,-15.847 11.553,-0.08 28.285,11.254 34.19,27.26 0.328,1.094 0.626,1.721 1.442,1.69 0.268,-0.01 0.666,-0.179 1.073,-0.349 0.676,-0.179 0.795,-0.497 0.766,-1.133 -0.01,-0.318 -0.03,-0.627 -0.05,-0.944 -1.591,-7.636 -4.066,-23.065 -4.752,-29.18 -0.219,-1.829 -0.517,-2.436 -1.591,-2.425 -0.407,0 -0.935,0.148 -1.74,0.308 -1.332,0.309 -3.231,0.468 -4.991,0.468 -0.955,0 -1.77,0.01 -2.595,-0.149 -5.269,-1.372 -15.35,-3.221 -21.832,-3.221 -26.704,0 -42.451,14.177 -43.495,35.432 -1.124,22.797 11.482,33.961 37.888,42.869 16.185,5.438 24.257,14.923 24.108,24.277 -0.159,10.658 -8.649,18.154 -22.31,19.615 -10.429,1.123 -30.69,-8.54 -43.634,-34.398 -0.478,-1.282 -0.875,-2.008 -1.939,-1.978 -0.308,0.01 -0.736,0.209 -1.173,0.407 -0.716,0.397 -1.124,0.775 -1.004,1.71 l 0.298,1.104 c 3.281,9.792 6.462,30.72 7.923,38.156 0.358,1.521 1.133,2.634 3.41,3.449 8.53,3.848 22.737,2.356 34.647,0.975 31.536,-3.648 46.697,-19.556 46.776,-43.455 0.082,-22.826 -13.429,-36.098 -36.463,-42.859 z M 342.4,443.624 c -15.639,-5.458 -21.395,-10.807 -21.146,-17.388 0.269,-6.959 5.716,-10.747 17.666,-10.747 9.276,0 21.853,10.498 26.406,22.756 0.248,0.836 0.477,1.313 1.144,1.332 0.219,0.011 0.547,-0.099 0.884,-0.209 0.548,-0.099 0.656,-0.338 0.646,-0.815 -0.01,-0.238 -0.01,-0.467 -0.02,-0.705 -1.164,-5.807 -3.132,-18.402 -3.6,-23.145 -0.148,-1.422 -0.387,-1.909 -1.272,-1.939 -0.338,-0.01 -0.775,0.09 -1.432,0.18 -1.104,0.199 -2.645,0.248 -4.086,0.188 -0.775,-0.029 -1.441,-0.06 -2.107,-0.209 -4.226,-1.242 -11.463,-2.992 -16.563,-3.251 -20.311,-1.093 -31.684,8.67 -32.28,24.209 -0.616,16.205 8.291,24.943 27.449,32.669 12.139,4.892 18.213,11.989 17.965,18.452 -0.278,7.276 -6.79,11.73 -16.901,11.711 -7.536,-0.02 -21.802,-8.191 -29.328,-25.302 -0.258,-0.846 -0.497,-1.332 -1.272,-1.342 -0.219,-0.01 -0.547,0.109 -0.875,0.219 -0.547,0.229 -0.865,0.467 -0.845,1.063 l 0.139,0.726 c 1.69,6.413 3.609,18.671 4.126,23.343 0.149,0.965 0.616,1.681 2.188,2.287 5.865,2.783 16.215,5.18 24.745,5.17 23.581,-0.051 35.8,-9.724 36.436,-26.366 0.636,-16.323 -10.042,-26.623 -28.067,-32.887 z m -89.476,60.477 c -7.705,-0.955 -10.757,-2.854 -10.737,-6.482 0.01,-0.904 0.238,-2.088 0.696,-3.29 1.352,-4.206 2.694,-8.392 4.046,-12.566 6.482,-0.468 11.901,-0.915 17.836,-1.322 v -5.696 c -5.379,0.348 -10.081,0.715 -15.987,1.104 3.778,-11.593 6.363,-19.874 10.131,-31.208 2.098,6.224 3.957,11.414 5.846,16.683 v -52.265 c -1.939,0.13 -2.754,0.915 -3.38,2.764 -8.997,26.854 -18.004,54.361 -27.032,82.696 -1.809,5.766 -5.249,9.713 -11.264,12.238 -0.099,-0.021 -0.199,-0.04 -0.298,-0.05 -5.508,-0.109 -6.85,-0.566 -6.83,-4.155 v -82.775 c 0.02,-3.579 1.829,-4.266 7.337,-5.091 0.586,-0.139 1.083,-0.396 1.094,-1.58 0.01,-1.184 -0.288,-1.263 -1.173,-1.253 -8.391,0.03 -18.581,-0.03 -26.972,0 -1.869,0.01 -2.068,1.144 -2.475,2.645 -5.398,22.051 -9.893,42.411 -15.281,65.526 -6.273,-21.822 -11.642,-42.073 -17.915,-65.229 -0.388,-1.432 -0.776,-2.942 -2.147,-2.942 -8.55,0.04 -17.11,-0.05 -25.66,0 -0.884,0 -1.183,0.507 -1.183,1.869 0,1.362 0.487,1.66 1.074,1.799 5.498,1.303 7.864,5.27 7.834,12.258 -0.109,26.465 0.119,54.113 0,80.588 -0.03,6.393 -2.764,11.403 -8.261,14.197 -0.586,0.288 -1.084,0.705 -1.084,2.067 -0.01,1.362 0.289,1.591 1.173,1.382 7.446,-1.779 16.663,-3.549 24.119,-5.189 0.885,-0.188 1.183,-0.547 1.183,-1.849 0.01,-1.303 -0.478,-1.491 -1.074,-1.512 -5.388,-0.288 -9.295,-3.668 -9.295,-10.18 v -67.425 c 0,-0.884 0.368,-1.332 0.566,-1.342 0.199,-0.01 0.487,0.428 0.676,1.153 7.407,28.314 13.043,47.452 20.43,73.798 1.064,3.51 1.75,3.957 4.494,3.49 2.654,-0.438 3.639,-0.885 4.543,-4.941 6.134,-27.111 12.268,-53.456 18.402,-79.137 0.099,-0.547 0.884,-0.576 0.884,-0.039 v 72.117 c -0.02,3.539 -1.799,4.702 -6.81,6.124 -0.597,0.229 -1.084,0.576 -1.094,1.81 -0.01,1.242 0.288,1.472 1.173,1.332 10.419,-1.591 20.848,-3.043 31.277,-4.375 0.289,0.119 0.726,0.109 1.362,0.04 9.107,-1.014 20.172,-1.948 29.298,-2.804 1.362,-0.129 1.819,-0.298 1.829,-1.451 0.011,-1.016 -0.326,-1.373 -1.351,-1.532 z m 192.85,-7.199 c -5.845,-0.864 -7.516,-1.481 -7.516,-4.662 -0.04,-24.547 -0.089,-49.103 -0.129,-73.649 0,-3.191 1.659,-3.777 7.476,-4.474 0.627,-0.119 1.144,-0.348 1.144,-1.421 0,-1.064 -0.318,-1.362 -1.253,-1.362 -11.462,-0.01 -22.001,0 -33.474,0 -0.935,0 -1.242,0.278 -1.242,1.342 0,1.054 0.517,1.293 1.144,1.412 5.299,0.586 6.969,1.411 6.969,4.474 0.01,10.816 0.02,21.633 0.03,32.46 -8.053,-0.04 -13.313,-0.04 -21.365,-0.021 0,-10.816 0.01,-21.623 0.01,-32.439 0,-3.052 1.66,-3.878 6.97,-4.464 0.626,-0.119 1.143,-0.358 1.143,-1.412 0,-1.054 -0.308,-1.342 -1.242,-1.342 -11.463,0 -22.001,-0.01 -33.474,0 -0.935,0 -1.243,0.299 -1.253,1.353 0,1.063 0.518,1.302 1.144,1.411 5.816,0.706 7.486,1.283 7.477,4.464 -0.03,24.517 -0.07,49.022 -0.1,73.539 -0.01,3.182 -1.67,3.798 -7.516,4.633 -0.627,0.129 -1.154,0.378 -1.154,1.441 0,1.064 0.309,1.293 1.253,1.273 11.513,-0.269 22.101,-0.408 33.613,-0.428 0.944,0 1.253,-0.238 1.253,-1.293 0,-1.054 -0.518,-1.292 -1.153,-1.411 -5.319,-0.577 -6.989,-1.382 -6.989,-4.444 0.01,-11.592 0.01,-23.193 0.01,-34.786 8.053,-0.029 13.322,-0.02 21.375,0.03 0.01,11.603 0.021,23.204 0.03,34.806 0,3.063 -1.66,3.857 -6.989,4.425 -0.626,0.119 -1.153,0.348 -1.144,1.401 0,1.064 0.318,1.293 1.253,1.303 11.513,0.06 22.101,0.248 33.612,0.566 0.935,0.03 1.253,-0.199 1.253,-1.263 -0.022,-1.074 -0.539,-1.322 -1.166,-1.462 z m -135.068,2.714 c -4.771,-0.328 -8.053,-1.958 -9.285,-5.07 -10.767,-26.952 -21.504,-54.44 -32.211,-82.745 -0.527,-1.352 -1.104,-2.138 -2.078,-2.506 v 58.637 c 0.735,2.078 1.491,4.235 2.276,6.521 -0.775,0.04 -1.541,0.09 -2.276,0.13 v 5.677 c 1.352,-0.09 2.734,-0.18 4.175,-0.269 2.088,6.024 4.166,12.02 6.253,17.984 0.219,0.478 0.219,0.855 0.219,1.233 -0.01,1.501 -1.601,1.988 -5.916,2.963 -1.591,0.378 -1.819,0.904 -1.829,1.908 -0.01,0.875 0.338,1.233 1.352,1.144 13.063,-1.083 26.127,-2.018 39.19,-2.804 1.023,-0.06 1.253,-0.438 1.263,-1.541 0.011,-0.844 -0.218,-1.192 -1.133,-1.262 z m 508.928,26.058 c 4.633,0 8.381,3.758 8.381,8.391 0,4.633 -3.758,8.391 -8.381,8.391 -4.633,0 -8.381,-3.758 -8.381,-8.391 0,-4.633 3.748,-8.391 8.381,-8.391 z m -56.599,-71.482 c -20.589,-7.804 -27.985,-14.664 -27.876,-23.104 0.119,-8.799 6.721,-14.594 21.802,-14.445 11.86,0.109 32.082,12.159 37.62,29.278 0.288,1.184 0.597,1.859 1.541,1.909 0.317,0.02 0.795,-0.129 1.272,-0.278 0.806,-0.129 0.965,-0.457 0.984,-1.123 0.01,-0.339 0.01,-0.667 0.02,-1.005 -1.272,-8.201 -2.973,-24.586 -3.311,-31.018 -0.109,-1.919 -0.407,-2.556 -1.641,-2.565 -0.457,0 -1.084,0.149 -2.008,0.308 -1.541,0.309 -3.679,0.458 -5.647,0.447 -1.054,-0.01 -1.958,-0.01 -2.854,-0.169 -5.617,-1.432 -19.704,-3.29 -26.276,-3.29 -25.231,0 -38.584,12.715 -39.051,31.813 -0.508,20.52 10.598,32.261 35.562,44.678 16.791,8.342 25.858,19.834 25.997,29.637 0.17,11.185 -8.857,16.722 -23.016,14.555 -10.26,-1.57 -29.646,-15.967 -35.7,-40.035 -0.149,-1.153 -0.349,-1.819 -1.293,-1.909 -0.268,-0.029 -0.696,0.09 -1.113,0.209 -0.716,0.249 -1.153,0.527 -1.242,1.323 -0.04,0.317 0.06,0.656 0.02,0.974 0.796,8.709 0.687,25.601 0.368,32.132 -0.01,1.353 0.428,2.436 2.286,3.579 6.91,5.031 23.83,10.916 35.452,12.835 33.882,5.598 51.449,-7.228 50.614,-33.742 -0.774,-25.165 -17.258,-41.459 -42.51,-50.994 z m -133.279,54.074 c -2.445,0 -6.362,-1.968 -11.005,-9.524 -6.453,-10.528 -19.854,-33.165 -22.866,-41.507 9.713,-2.823 14.406,-10.18 14.406,-23.174 0,-14.346 -10.827,-22.727 -27.808,-22.727 H 540.39 c -0.666,0 -1.342,0.537 -1.342,1.641 0,1.104 0.557,1.352 1.233,1.472 6.253,0.735 8.042,1.352 8.042,4.663 v 77.058 c 0,3.311 -1.79,3.817 -8.042,4.175 -0.667,0.08 -1.233,0.299 -1.233,1.402 0,1.103 0.339,1.372 1.342,1.432 l 36.964,2.217 c 1.004,0.061 1.342,-0.159 1.342,-1.263 0,-1.104 -0.557,-1.382 -1.223,-1.551 -5.696,-0.954 -7.477,-1.919 -7.477,-5.109 v -38.027 c 0,0 4.723,-0.397 7.179,4.771 4.791,10.062 12.099,23.413 17.597,33.146 4.434,7.884 13.699,12.378 24.686,13.372 4.235,0.388 5.726,0.378 9.563,0.139 0.677,-0.06 1.681,-0.269 1.909,-1.332 0.199,-1.065 -0.497,-1.274 -1.174,-1.274 z m -51.518,-54.829 c -4.692,0 -8.262,-0.984 -8.262,-5.03 v -32.132 c 0,0 2.903,-0.248 6.145,-0.248 7.486,0 13.621,7.107 13.621,17.775 -0.011,12.04 -4.693,19.635 -11.504,19.635 z m -57.9,1.442 c -0.478,-0.03 -1.193,-0.149 -1.193,-0.149 0,0 0.984,-0.119 1.193,-0.109 9.684,0.1 16.613,-9.176 16.553,-21.126 -0.069,-14.426 -10.19,-22.171 -25.987,-22.16 h -39.181 c -0.627,0 -1.243,0.298 -1.243,1.371 0,1.064 0.527,1.303 1.144,1.422 5.826,0.726 7.585,1.322 7.596,4.533 0.069,24.716 -0.07,49.421 0,74.136 0.01,3.211 -1.562,3.738 -7.397,4.275 -0.626,0.1 -1.144,0.328 -1.144,1.392 0,1.064 0.318,1.313 1.253,1.343 13.67,0.417 27.34,1.023 41,1.809 19.088,1.153 28.95,-5.646 28.86,-23.602 -0.069,-12.269 -9.484,-23.026 -21.454,-23.135 z M 499.41,415.986 c 0,0 2.575,-0.229 5.587,-0.219 6.552,0.01 12.706,7.069 12.756,17.627 0.05,11.651 -4.087,19.168 -10.638,18.988 -1.253,-0.029 -7.695,-0.666 -7.695,-0.666 v -35.73 z m 8.699,80.28 c -2.297,-0.119 -8.689,-1.978 -8.699,-5.09 v -34.18 c 0,0 0.637,0.021 1.472,0.04 1.77,0.05 4.583,0.119 6.145,0.527 9.792,2.197 14.724,9.683 14.763,20.261 0.068,15.221 -6.274,18.829 -13.681,18.442 z"
   id="path2"
   inkscape:connector-curvature="0"
   style="display:inline;fill:#ff0000" />
</g>
<g
   id="logosuper"
   display="none"
   style="display:none"
   transform="translate(-26.913416,-276.24204)">
	<path
   display="inline"
   d="m 370.376,306.229 c 3.609,0.109 7.517,0.835 7.517,6.094 v 47.621 c 0,4.872 -0.687,8.53 -1.8,11.294 h 8.431 c 0.696,-3.42 1.024,-7.168 1.024,-11.194 v -47.511 c 0,-5.239 4.543,-5.696 8.103,-5.587 0.904,0.03 1.223,-0.518 1.223,-1.432 0,-1.252 -0.418,-1.63 -1.184,-1.65 l -23.343,-0.746 c -0.785,-0.03 -1.202,0.318 -1.202,1.591 -0.011,0.924 0.317,1.491 1.231,1.52 z"
   id="path5"
   inkscape:connector-curvature="0"
   style="display:inline;fill:#ff0000" />
	<path
   display="inline"
   d="m 316.492,304.619 c 3.738,0.119 8.231,1.004 8.231,6.353 v 48.427 c 0,4.235 0.518,8.211 1.551,11.831 h 23.294 c -1.799,-3.321 -2.893,-7.615 -2.893,-12.855 v -46.766 c 0,-5.309 4.414,-5.916 8.063,-5.806 0.925,0.03 1.253,-0.517 1.253,-1.452 0,-1.273 -0.428,-1.65 -1.223,-1.67 l -38.315,-1.232 c -0.815,-0.03 -1.253,0.328 -1.253,1.621 0,0.942 0.338,1.519 1.292,1.549 z"
   id="path7"
   inkscape:connector-curvature="0"
   style="display:inline;fill:#ff0000" />
	<path
   display="inline"
   d="m 375.417,372.7 c -3.241,6.173 -8.997,6.791 -13.123,6.771 -4.494,-0.02 -8.858,-2.316 -11.831,-6.771 h -23.721 c 4.036,12.099 14.157,19.903 30.184,19.903 16.056,0 24.297,-7.585 27.29,-19.903 h -8.799 z"
   id="path9"
   inkscape:connector-curvature="0"
   style="display:inline;fill:#ff0000" />
	<path
   display="inline"
   d="m 397.786,306.985 c 3.758,0 8.291,0.636 8.291,6.134 v 58.109 h 21.991 v -15.25 c 20.291,6.393 39.24,-6.233 39.24,-27.857 0,-17.706 -16.076,-24.397 -30.174,-24.397 h -39.389 c -0.815,0 -1.253,0.378 -1.253,1.7 -0.009,0.974 0.329,1.561 1.294,1.561 z"
   id="path11"
   inkscape:connector-curvature="0"
   style="display:inline;fill:#ff0000" />
	<path
   display="inline"
   d="m 446.49,328.777 c 0,13.8 -5.061,20.53 -13.014,21.494 -0.428,0.05 -5.27,-0.318 -5.418,-1.67 v -40.552 c 12.387,0 18.432,7.515 18.432,20.728 z"
   id="path13"
   inkscape:connector-curvature="0"
   style="display:inline;fill:#ff0000" />
	<path
   display="inline"
   d="m 436.35,389.263 c -3.758,0 -8.291,-0.636 -8.291,-6.134 V 372.7 h -21.991 v 10.429 c 0,5.508 -4.534,6.134 -8.292,6.134 -0.954,0 -1.293,0.586 -1.293,1.551 0,1.323 0.438,1.7 1.264,1.7 h 38.643 c 0.815,0 1.253,-0.378 1.253,-1.7 0,-0.975 -0.329,-1.551 -1.293,-1.551 z"
   id="path15"
   inkscape:connector-curvature="0"
   style="display:inline;fill:#ff0000" />
	<path
   display="inline"
   d="m 625.85,389.879 c -4.026,0.089 -10.29,-2.267 -13.998,-8.431 -0.775,-1.292 -2.387,-4.603 -4.285,-8.759 h -23.114 c 1.7,4.255 2.973,7.476 2.973,7.476 2.415,6.154 8.162,11.165 15.479,12.616 4.404,0.875 20.013,0.467 22.807,0.238 1.054,-0.169 1.143,-0.935 1.282,-1.65 0.128,-0.595 -0.229,-1.499 -1.144,-1.49 z"
   id="path17"
   inkscape:connector-curvature="0"
   style="display:inline;fill:#ff0000" />
	<path
   display="inline"
   d="m 572.571,389.114 c -3.399,0.02 -7.197,-0.586 -7.157,-6.074 v -10.33 h -22.319 v 10.658 c -0.011,5.319 -3.809,5.955 -6.88,5.975 -0.775,0.01 -1.054,0.566 -1.054,1.481 0,1.263 0.358,1.621 1.023,1.621 l 36.397,-0.06 c 0.745,0 1.143,-0.378 1.153,-1.72 0.01,-0.975 -0.288,-1.561 -1.163,-1.551 z"
   id="path19"
   inkscape:connector-curvature="0"
   style="display:inline;fill:#ff0000" />
	<path
   display="inline"
   d="m 537.07,304.758 c 3.131,-0.427 6.034,-0.308 6.024,5.19 v 61.281 h 22.319 v -23.89 l 1.371,-0.089 c 2.834,-0.189 7.287,0.835 9.246,4.762 0.616,1.243 4.723,11.443 7.824,19.218 H 606.9 c -3.938,-8.699 -8.818,-20.271 -10.398,-25.272 12.139,-6.721 13.64,-16.99 13.64,-26.286 0,-17.846 -10.905,-26.247 -34.109,-23.214 l -39.847,5.09 c -0.677,0.099 -1.044,0.517 -1.044,1.829 0.009,0.954 1.142,1.491 1.928,1.381 z"
   id="path21"
   inkscape:connector-curvature="0"
   style="display:inline;fill:#ff0000" />
	<path
   display="inline"
   d="m 566.696,302.332 2.654,-0.358 c 5.468,-0.726 19.237,0.925 19.059,17.08 -0.149,13.412 -5.786,21.514 -13.77,22.121 -4.882,0.368 -8.968,-0.905 -9.216,-4.334 v -32.808 c 10e-4,-1.243 0.299,-1.572 1.273,-1.701 z"
   id="path23"
   inkscape:connector-curvature="0"
   style="display:inline;fill:#ff0000" />
	<path
   display="inline"
   d="m 464.376,307.045 c 3.967,0 8.391,0.328 8.391,5.567 v 58.606 h 21.813 v -24.566 c 0.158,-0.02 0.357,-0.03 0.596,-0.03 1.959,-0.02 7.517,-0.497 10.638,0.756 5.21,2.107 7.646,9.892 8.789,14.416 0.199,0.775 0.467,0.944 0.975,0.944 l 0.924,-0.01 c 0.447,-0.03 0.617,-0.358 0.617,-0.905 v -36.486 c 0,-0.557 0.02,-1.084 -0.606,-1.074 l -1.114,0.03 c -0.378,0.01 -0.556,0.288 -0.725,0.925 -0.518,1.958 -3.023,13.262 -9.296,16.135 -1.74,0.795 -8.719,1.472 -10.2,1.491 -0.229,0 -0.418,0.02 -0.587,0.02 v -34.846 c 0,-0.358 0.1,-0.457 0.438,-0.467 l 13.282,-0.348 c 5.18,-0.139 10.638,2.347 12.726,4.743 3.47,3.986 6.501,12.566 6.899,13.878 0.159,0.527 0.537,0.567 0.835,0.507 l 1.084,-0.378 c 0.417,-0.179 0.309,-0.885 0.229,-1.352 l -2.426,-20.788 c 0,-1.392 -0.438,-2.088 -2.466,-2.028 l -61.221,1.899 c -0.865,0.03 -1.322,0.397 -1.322,1.66 -0.003,0.906 0.205,1.701 1.727,1.701 z"
   id="path25"
   inkscape:connector-curvature="0"
   style="display:inline;fill:#ff0000" />
	<path
   display="inline"
   d="m 532.348,365.115 c -0.388,-0.089 -1.124,-0.139 -1.571,0.984 -0.258,0.646 -1.232,2.724 -2.485,5.12 h 4.097 c 0.308,-1.7 0.596,-3.25 0.845,-4.553 0.237,-1.134 -0.42,-1.442 -0.886,-1.551 z"
   id="path27"
   inkscape:connector-curvature="0"
   style="display:inline;fill:#ff0000" />
	<path
   display="inline"
   d="m 523.399,379.202 c -1.958,2.406 -6.938,7.923 -12.795,8.123 -1.292,0.04 -9.066,0.318 -11.055,0.05 -3.968,-0.537 -4.961,-1.551 -4.961,-6.83 V 372.7 h -21.813 v 10.767 c 0,5.239 -4.792,5.846 -8.769,5.855 -1.004,0 -1.362,0.557 -1.362,1.472 0,1.253 0.458,1.79 1.322,1.79 l 64.264,-0.02 c 0.666,0 0.984,-0.716 1.073,-1.462 0.527,-4.712 1.73,-12.258 2.813,-18.412 h -4.622 c -1.31,2.426 -2.811,4.932 -4.095,6.512 z"
   id="path29"
   inkscape:connector-curvature="0"
   style="display:inline;fill:#ff0000" />
	<path
   display="inline"
   d="m 264.775,345.171 v -28.493 c -1.252,-2.068 -1.819,-4.186 -1.75,-6.363 0.07,-2.276 0.656,-4.235 1.75,-5.836 v -10.528 c -11.97,2.296 -18.71,10.091 -18.591,20.868 0.14,12.606 5.886,21.822 18.591,30.352 z"
   id="path31"
   inkscape:connector-curvature="0"
   style="display:inline;fill:#ff0000" />
	<path
   display="inline"
   d="m 238.828,354.745 c 1.511,4.116 3.022,10.389 4.334,16.473 h 12.099 c -4.364,-4.245 -8.769,-9.872 -12.934,-17.318 -0.715,-1.283 -0.825,-1.76 -1.799,-1.799 -0.278,-0.01 -0.676,0.139 -1.074,0.278 -0.656,0.298 -1.034,0.597 -0.904,1.402 0.038,0.318 0.227,0.646 0.278,0.964 z"
   id="path33"
   inkscape:connector-curvature="0"
   style="display:inline;fill:#ff0000" />
	<path
   display="inline"
   d="m 297.374,372.7 c 0,0.139 0.01,0.288 0.01,0.427 -0.099,8.222 -7.883,12.576 -19.127,10.548 -3.182,-0.576 -6.989,-1.68 -11.125,-3.788 v 13.74 c 3.659,0.278 7.337,0.348 11.244,0.348 17,0 31.853,-7.337 35.084,-21.275 z"
   id="path35"
   inkscape:connector-curvature="0"
   style="display:inline;fill:#ff0000" />
	<path
   display="inline"
   d="m 264.775,378.575 c -2.575,-1.521 -5.239,-3.45 -7.933,-5.885 H 243.48 c 1.263,5.975 2.316,11.592 2.983,14.575 0.338,1.283 2.276,2.963 4.354,3.539 4.931,1.362 9.464,2.158 13.958,2.605 z"
   id="path37"
   inkscape:connector-curvature="0"
   style="display:inline;fill:#ff0000" />
	<path
   display="inline"
   d="m 312.535,326.938 c -0.269,0.139 -0.994,0.268 -1.192,0.249 -0.606,-0.05 -0.815,-0.687 -1.063,-1.422 -4.425,-12.934 -17.736,-23.87 -28.464,-25.56 -6.569,-1.036 -11.435,-0.295 -14.566,1.828 v -8.449 c 4.378,-0.537 9.353,-0.398 14.875,0.527 5.239,0.885 14.733,3.938 18.79,5.687 0.636,0.219 1.292,0.458 2.018,0.577 1.342,0.209 1.988,0.179 2.993,0.099 0.606,-0.03 1.382,-0.328 2.217,-0.159 0.796,0.159 1.224,0.766 1.382,2.208 0.508,4.812 2.068,17.775 3.112,22.866 0.217,1.052 0.296,1.331 -0.102,1.549 z"
   id="path39"
   inkscape:connector-curvature="0"
   style="display:inline;fill:#ff0000" />
	<path
   display="inline"
   d="m 314.106,366.546 c 0.01,1.63 -0.109,3.182 -0.358,4.672 h -16.503 c -0.945,-6.521 -7.198,-12.656 -18.661,-18.253 -4.222,-2.06 -7.987,-4.113 -11.335,-6.195 v -26.95 c 3.799,3.912 10.258,7.695 19.796,11.513 17.805,7.098 26.912,20.091 27.061,35.213 z"
   id="path41"
   inkscape:connector-curvature="0"
   style="display:inline;fill:#ff0000" />
</g>
<g
   id="ult"
   display="none"
   style="display:none"
   transform="translate(-26.913416,-276.24204)">
	<path
   display="inline"
   d="m 189.983,568.846 v 27.818 h -26.685 c -4.957,0 -8.665,-5.077 -8.665,-8.88 v -15.419 l -3.598,-3.52 h 15.052 l -0.596,3.335 v 17.721 c 0,0.903 0.7,1.806 1.4,1.806 h 12.39 v -22.861 z"
   id="path44"
   inkscape:connector-curvature="0"
   style="display:inline" />
	<path
   display="inline"
   d="m 237.674,589.42 v -17.055 l -3.597,-3.521 h 15.155 l -0.652,3.461 v 17.26 l 0.545,2.085 h 13.73 l 2.767,5.121 c 0,0 -29.244,0 -29.606,0 1.192,-2.141 1.658,-4.964 1.658,-7.351 z"
   id="path46"
   inkscape:connector-curvature="0"
   style="display:inline" />
	<path
   display="inline"
   d="m 390.723,596.771 c -0.125,0 -13.509,0 -13.509,0 1.193,-2.143 1.661,-4.98 1.661,-7.366 v -17.04 l -3.598,-3.521 h 15.053 l -0.55,3.076 v 17.015 c -10e-4,2.534 0.284,6.467 0.943,7.836 z"
   id="path48"
   inkscape:connector-curvature="0"
   style="display:inline" />
	<path
   display="inline"
   d="m 322.16,574.044 v 14.892 c 0,2.533 0.285,6.467 0.943,7.836 -0.125,0 -13.509,0 -13.509,0 1.193,-2.143 1.66,-4.964 1.66,-7.35 v -15.378 h -11.346 l 3.191,-5.199 h 32.022 l -3.879,6.24 -0.65,-1.041 z"
   id="path50"
   inkscape:connector-curvature="0"
   style="display:inline" />
	<path
   display="inline"
   d="m 613.093,574.044 v 14.892 c 0,2.533 0.285,6.467 0.944,7.836 -0.125,0 -13.509,0 -13.509,0 1.193,-2.143 1.66,-4.964 1.66,-7.35 v -15.378 h -11.346 l 3.191,-5.199 h 32.022 l -3.879,6.24 -0.65,-1.041 z"
   id="path52"
   inkscape:connector-curvature="0"
   style="display:inline" />
	<path
   display="inline"
   d="m 480.018,588.936 c 0,2.533 0.25,6.467 0.908,7.836 -0.121,0 -13.509,0 -13.509,0 1.193,-2.143 1.665,-4.976 1.665,-7.362 v -5.297 l -7.542,12.659 h -10.044 l 1.181,-1.926 -6.649,-11.575 v 5.664 c 0,4.856 0.286,6.467 0.945,7.836 -0.125,0 -10.077,0 -10.077,0 1.193,-2.143 1.661,-4.98 1.661,-7.366 v -17.041 l -3.598,-3.52 h 11.473 l 10.703,18.632 11.43,-18.632 h 13.532 l -2.079,2.309 z"
   id="path54"
   inkscape:connector-curvature="0"
   style="display:inline" />
	<path
   display="inline"
   d="m 698.452,596.771 c 0,0 -29.476,0 -31.021,0 0.583,-0.94 1.546,-3.453 1.546,-7.428 v -16.984 l -3.503,-3.514 h 32.878 l -4.584,7.321 -1.7,-2.773 H 679.96 v 6.504 h 12.477 l 2.416,4.205 H 679.96 v 7.653 h 15.707 z"
   id="path56"
   inkscape:connector-curvature="0"
   style="display:inline" />
	<path
   display="inline"
   d="m 554.873,590.925 -12.633,-22.08 h -11.691 l 1.948,2.672 -9.845,16.269 c -2.054,3.395 -5.242,7.654 -6.624,8.986 h 7.125 c 0,0 0.999,-2.218 2.421,-4.634 l 2.252,-3.829 h 14.126 l 1.605,2.956 c 1.544,2.842 2.145,4.646 2.207,5.507 0.199,0 13.046,0 13.2,0 -0.264,-0.274 -1.831,-1.898 -4.091,-5.847 z"
   id="path58"
   inkscape:connector-curvature="0"
   style="display:inline" />
	<polygon
   display="inline"
   points="539.668,584.107 530.297,584.107 535.168,575.826 "
   id="polygon60"
   style="display:inline" />
</g>


<g
   id="PRAIRIEenv"
   display="none"
   style="display:none"
   transform="translate(-26.913416,-276.24204)">
	<g
   display="inline"
   id="g107"
   style="display:inline">
		<g
   id="g105">
			<path
   d="m 25.91,410.825 c 0.123,0.074 0.185,0.113 0.308,0.187 0.123,-0.075 0.185,-0.113 0.308,-0.187 0.147,0.074 0.222,0.111 0.369,0.185 0.164,-0.124 0.369,-0.185 0.615,-0.185 0.123,0 0.185,0.185 0.185,0.185 0.027,0.015 0.37,-0.185 0.493,-0.185 0.123,0 0.184,0.06 0.184,0.184 0.32,-0.074 0.48,-0.111 0.8,-0.185 0.345,0 0.516,0 0.861,0 0.082,0 0.124,0.062 0.124,0.185 0.147,-0.074 0.222,-0.111 0.369,-0.184 0.443,0 0.665,0 1.107,0 0.123,0 0.185,0.061 0.185,0.183 0.123,-0.074 0.185,-0.11 0.308,-0.184 0.468,0 0.701,-0.001 1.168,-0.001 0.123,0 0.184,0.062 0.184,0.184 0.123,-0.073 0.186,-0.11 0.309,-0.183 1.058,0 1.587,-0.001 2.645,-0.001 0.123,0 0.185,0.061 0.185,0.182 0.123,-0.073 0.185,-0.109 0.308,-0.182 9.745,-0.002 14.618,-0.004 24.363,-0.006 0.164,0 0.427,0.205 0.491,0.464 0.021,0.086 -0.062,0.176 -0.185,0.176 0.074,0.118 0.111,0.177 0.185,0.296 -0.001,1.272 -2.011,1.579 -4.432,2.004 -1.714,0.301 -3.181,1.727 -3.633,3.154 -0.075,0.74 -0.111,1.12 -0.186,1.895 -0.038,39.264 -0.041,78.528 -0.076,117.792 -0.002,2.521 1.101,3.8 2.941,3.769 2.997,-0.052 4.751,-0.253 4.788,-0.15 0.115,0.326 0.489,0.8 0.488,1.191 -0.074,0.021 -0.111,0.031 -0.185,0.052 0.074,0.098 0.111,0.146 0.185,0.242 0,0.155 -0.165,0.354 -0.492,0.6 -9.722,2.782 -14.581,4.245 -24.295,7.317 -0.123,0.039 -0.184,-0.003 -0.184,-0.124 -0.123,0.111 -0.184,0.168 -0.306,0.279 -1.055,0.334 -1.582,0.501 -2.636,0.839 -0.123,0.039 -0.184,-0.003 -0.184,-0.125 -0.123,0.112 -0.184,0.17 -0.307,0.282 -0.466,0.149 -0.7,0.225 -1.166,0.375 -0.082,0.026 -0.122,-0.021 -0.122,-0.144 -0.147,0.121 -0.222,0.181 -0.369,0.302 -0.441,0.143 -0.662,0.214 -1.104,0.357 -0.123,0.04 -0.185,-0.002 -0.185,-0.124 -0.123,0.113 -0.183,0.17 -0.305,0.283 -0.343,0.111 -0.517,0.167 -0.86,0.279 -0.245,0.08 -0.536,0.004 -0.611,0.017 -0.125,0.021 -0.431,0.323 -0.676,0.403 0,-0.073 0,-0.11 0,-0.185 -0.147,0.122 -0.221,0.185 -0.368,0.307 -0.245,0.08 -0.448,0.087 -0.611,0.017 -0.147,0.123 -0.221,0.184 -0.368,0.306 -0.123,-0.033 -0.184,-0.053 -0.307,-0.087 -0.205,0.191 -0.47,0.386 -0.675,0.41 -0.39,0.046 -0.756,-0.184 -0.797,-0.423 0,-0.531 0,-0.803 0,-1.36 0,-0.487 1.205,-1.318 3.617,-2.458 0,0.083 0.001,0.126 0.001,0.208 3.27,-1.821 4.906,-3.731 4.907,-6.016 0.01,-41.616 0.014,-83.232 0.024,-124.849 0,-2.241 -1.915,-4.102 -4.735,-4.444 -0.106,-0.013 -0.167,0.192 -0.184,0.208 -0.451,0.391 -3.629,-0.777 -3.629,-1.268 0,-0.561 0,-0.834 0,-1.369 0.162,-0.465 0.552,-0.69 1.168,-0.69 z"
   id="path81"
   inkscape:connector-curvature="0" />
			<path
   d="m 114.558,410.808 c 10.262,-10e-4 15.393,-10e-4 25.655,-0.002 0.738,0 1.233,0.455 1.289,1.265 0.059,0.869 -1.243,1.39 -2.958,1.794 -3.092,0.729 -6.078,3.374 -7.213,6.487 -0.38,1.042 -0.497,2.093 -0.498,2.812 -0.018,10.118 -0.037,20.235 -0.053,30.354 -0.032,19.87 -0.634,40.25 -0.284,59.609 0.047,2.625 0.169,6.954 0.157,11.385 -0.001,0.462 -0.649,0.919 -1.662,1.029 -0.771,0.084 -2.715,-1.247 -5.579,-4.65 -21.483,-25.529 -33.761,-59.109 -49.302,-88.668 -0.049,0.002 -0.074,0.003 -0.123,0.005 -0.034,30.572 -0.053,61.145 -0.09,91.717 -0.007,6.063 3.955,9.856 8.828,9.488 1.113,-0.084 2.027,0.138 1.963,1.113 -0.059,0.904 -0.557,1.498 -1.293,1.689 -10.244,2.663 -15.364,4.069 -25.601,7.041 -0.328,0.095 -0.49,-0.305 -0.489,-1.28 10e-4,-0.935 1.925,-2.09 4.116,-3.702 3.618,-2.664 5.593,-7.605 5.598,-12.657 0.034,-32.973 0.056,-65.946 0.085,-98.919 0.007,-6.517 -2.035,-10.419 -5.583,-11.745 -2.168,-0.81 -3.629,-1.376 -3.628,-2.046 0,-0.201 10e-4,-0.3 10e-4,-0.497 0.001,-0.985 0.391,-1.437 1.17,-1.438 9.401,-0.005 14.101,-0.008 23.502,-0.013 2.009,-10e-4 3.647,1.056 4.915,3.611 14.606,20.231 24.703,43.708 36.186,65.756 0.029,-18.628 0.051,-37.255 0.089,-55.882 0.012,-5.975 -3.45,-10.25 -8.342,-10.984 -0.757,-0.114 -1.461,-0.768 -1.35,-1.811 0.056,-0.532 0.289,-0.861 0.494,-0.861 z"
   id="path83"
   inkscape:connector-curvature="0" />
			<path
   d="m 156.05,410.803 c 24.876,0 49.752,0 74.628,0 0.205,0.034 0.307,0.117 0.307,0.251 -0.018,7.053 -0.026,11.685 -0.044,21.601 -0.001,0.662 -0.167,1.047 -0.495,1.146 -0.468,0.009 -0.701,0.011 -1.169,0.02 -0.534,-0.18 -1.277,-3.379 -2.754,-8.063 -1.469,-4.659 -4.955,-8.275 -9.024,-9.8 -1.816,-0.68 -5.249,-0.904 -9.842,-0.897 -1.723,0.002 -2.584,0.002 -4.307,0.005 -0.077,30.447 -0.113,60.894 -0.176,91.341 0.527,2.372 2.885,2.784 3.314,3.064 0.042,0.027 1.354,0.248 3.938,0.328 0.196,0.354 0.293,0.527 0.489,0.871 -0.125,0.667 -0.29,0.998 -0.494,1.025 -9.481,1.259 -14.222,1.933 -23.7,3.389 -0.083,0.013 -0.124,-0.029 -0.124,-0.13 -0.148,0.083 -0.222,0.126 -0.37,0.209 -1.034,0.159 -1.551,0.237 -2.585,0.399 -0.123,0.02 -0.185,-0.021 -0.185,-0.121 -0.123,0.08 -0.185,0.119 -0.308,0.198 -0.468,0.073 -0.701,0.111 -1.169,0.186 -0.123,0.02 -0.186,-0.022 -0.185,-0.123 -0.123,0.08 -0.184,0.119 -0.307,0.199 -0.468,0.074 -0.703,0.111 -1.171,0.186 -0.083,0.013 -0.123,-0.029 -0.122,-0.13 -0.148,0.084 -0.221,0.125 -0.369,0.209 -0.32,0.051 -0.48,0.077 -0.8,0.129 -0.246,0.039 -0.567,-0.062 -0.677,-0.043 -0.109,0.019 -0.369,0.211 -0.615,0.251 0,-0.061 0,-0.089 0,-0.149 -0.148,0.085 -0.221,0.126 -0.369,0.21 -0.246,0.04 -0.473,0.026 -0.677,-0.041 -0.123,0.081 -0.185,0.12 -0.308,0.2 -0.123,-0.04 -0.185,-0.06 -0.308,-0.101 -0.206,0.134 -0.469,0.265 -0.677,0.264 -0.416,-0.002 -0.759,-0.229 -0.799,-0.427 0.001,-0.43 0.001,-0.651 0.003,-1.098 0.001,-0.354 1.047,-0.871 3.141,-1.536 0,0.066 0.001,0.101 0.001,0.166 3.284,-1.182 4.927,-2.23 4.93,-3.201 0.124,-0.135 0.185,-0.202 0.309,-0.338 0.14,-6.542 0.214,-13.154 0.224,-18.233 0.049,-25.703 0.086,-51.407 0.148,-77.11 -1.575,0.004 -2.361,0.005 -3.937,0.01 -8.696,0.024 -14.018,2.208 -16.319,5.938 -2.122,3.438 -3.002,11.099 -4.767,14.218 -0.137,0.242 -0.698,0.422 -0.984,0.432 -0.345,0.012 -0.516,0.018 -0.861,0.029 -0.369,0.013 -0.636,-0.76 -0.796,-2.277 0.021,-10.614 0.031,-15.476 0.052,-22.397 0.042,-0.173 0.145,-0.259 0.31,-0.259 z"
   id="path85"
   inkscape:connector-curvature="0" />
			<path
   d="m 227.809,410.703 c 10.89,-10e-4 21.779,0 32.668,0 0.82,0 1.312,0.185 1.475,0.56 -10e-4,0.389 -10e-4,0.585 -0.002,0.983 0,0.35 -2.265,0.509 -5.601,1.271 -1.53,0.35 -2.464,1.6 -2.468,3.285 -0.024,12.292 -0.042,24.583 -0.06,36.874 8.765,-0.362 13.147,-0.527 21.913,-0.826 0.014,-11.7 0.031,-23.401 0.049,-35.101 0.004,-2.4 -0.875,-3.67 -2.454,-4.104 -0.923,-0.254 -2.767,-0.614 -5.474,-0.971 -0.123,-0.17 -0.185,-0.254 -0.307,-0.422 0,-0.231 0,-0.346 10e-4,-0.574 0.001,-0.656 0.495,-0.974 1.479,-0.974 10.767,0 21.533,0 32.3,0 1.312,0 1.967,0.191 1.967,0.577 0,0.4 0,0.601 0,1.008 0,0.465 -1.955,0.651 -5.109,1.126 -2.172,0.327 -3.447,1.481 -3.449,2.998 -0.033,25.819 -0.059,51.639 -0.091,77.458 -0.005,4.177 1.158,5.815 1.286,5.935 0.086,0.08 2.318,0.853 6.958,1.266 0.197,0.223 0.296,0.333 0.493,0.554 0,0.34 -10e-4,0.509 -0.002,0.844 0,0.176 -0.103,0.27 -0.308,0.282 -11.508,0.778 -23,1.641 -34.494,2.593 -0.616,0.054 -1.006,-0.096 -1.169,-0.459 0,-0.267 0,-0.403 10e-4,-0.674 10e-4,-0.8 1.248,-1.372 3.637,-1.751 2.927,-0.464 4.155,-1.994 4.439,-3.48 0.051,-0.27 0.187,-0.926 0.188,-1.863 0.019,-12.476 0.035,-24.952 0.051,-37.428 -8.766,0.384 -13.149,0.595 -21.915,1.052 -0.02,13.407 -0.042,26.813 -0.064,40.221 -0.003,1.639 1.5,2.643 4.119,2.702 2.496,0.057 3.941,0.146 3.94,0.637 -10e-4,0.441 -10e-4,0.66 -0.002,1.09 -0.166,0.392 -0.556,0.611 -1.171,0.669 -11.449,1.113 -22.875,2.323 -34.304,3.633 -0.329,-0.061 -0.491,-0.306 -0.49,-0.748 0.002,-0.919 1.38,-1.433 3.637,-1.836 3.243,-0.58 5.114,-2.236 5.119,-4.476 0.059,-28.763 0.092,-57.524 0.152,-86.287 0.004,-1.835 -1.656,-2.914 -4.792,-3.16 -2.444,-0.192 -3.752,-0.573 -3.75,-1.263 0,-0.207 0.002,-0.309 0.002,-0.512 0.248,-0.479 0.781,-0.709 1.602,-0.709 z"
   id="path87"
   inkscape:connector-curvature="0" />
			<path
   d="m 300.993,410.806 c 20.631,0.004 41.261,0.006 61.892,0.008 0.861,0 1.151,2.578 1.598,7.243 0.864,9.023 2.707,17.007 2.146,18.302 -0.148,0.343 -1.121,0.723 -1.662,0.632 -0.215,-0.036 -1.007,-2.443 -2.582,-6.276 -2.822,-6.871 -7.626,-11.648 -13.162,-14.146 -1.402,-0.447 -2.104,-0.67 -3.506,-1.111 -0.083,0 -1.396,-0.063 -3.938,-0.188 0,-0.045 0,-0.069 0,-0.114 -0.123,0.045 -0.184,0.067 -0.307,0.112 -1.255,-0.005 -1.882,-0.007 -3.138,-0.012 -0.394,-0.047 -0.591,-0.07 -0.985,-0.117 -0.165,0.076 -0.431,0.111 -0.8,0.11 -0.411,-0.001 -0.903,-0.041 -1.477,-0.119 -0.468,0.043 -0.701,0.065 -1.169,0.109 -0.246,-10e-4 -0.5,-0.083 -0.676,-0.116 -1.96,-0.359 -3.63,0.324 -3.631,1.01 -0.009,11.795 -0.018,23.59 -0.027,35.385 0,0.181 0.225,0.425 0.677,0.731 0.665,-0.013 0.997,-0.02 1.662,-0.032 7.058,-0.133 11.536,-2.734 13.792,-6.271 1.514,-2.374 3.917,-6.14 5.298,-10.519 0.744,-2.36 1.212,-3.757 1.664,-3.755 0.049,0 0.075,10e-4 0.124,10e-4 1.107,0.174 1.661,0.409 1.661,0.703 -0.006,13.274 -0.013,26.548 -0.019,39.822 -0.247,1.172 -0.801,1.771 -1.663,1.801 -0.616,0.021 -1.172,-1.718 -2.091,-4.468 -1.041,-3.114 -3.313,-6.575 -5.598,-9.875 -1.735,-2.507 -4.963,-3.834 -9.723,-3.729 -0.657,0.015 -1.638,-0.138 -2.648,-0.144 -1.906,-0.012 -3.139,0.458 -3.139,0.818 -0.009,12.077 -0.018,24.155 -0.027,36.232 -10e-4,1.648 1.312,2.761 3.939,3.391 2.39,0.064 3.583,0.1 5.973,0.172 0.574,-0.14 1.067,-0.22 1.478,-0.238 0.468,-0.021 0.702,-0.03 1.17,-0.051 6.24,-0.277 11.008,-2.531 14.289,-5.632 1.913,-1.808 4.084,-3.871 5.606,-6.222 1.982,-3.062 4.169,-7.101 6.592,-11.98 0.148,-0.056 0.221,-0.081 0.369,-0.137 0.394,-0.012 0.591,-0.021 0.985,-0.031 0.164,-0.005 0.563,0.317 0.615,0.622 1.168,6.797 -2.363,22.665 -4.626,26.742 -0.15,0.271 -0.74,0.47 -1.109,0.48 -21.167,0.665 -42.302,1.618 -63.439,2.908 -0.781,0.051 -1.169,-0.198 -1.168,-0.761 10e-4,-0.95 1.307,-1.368 3.328,-1.665 3.45,-0.508 5.545,-2.077 5.547,-3.749 0.03,-26.514 0.051,-53.027 0.08,-79.541 0.002,-1.879 -1.412,-3.054 -4.241,-3.606 -1.452,-0.31 -2.177,-0.463 -3.629,-0.768 -0.329,0 -0.595,-0.181 -0.799,-0.538 0,-0.406 10e-4,-0.607 0.002,-1.006 0,-0.138 0.164,-0.278 0.492,-0.417 z"
   id="path89"
   inkscape:connector-curvature="0" />
			<path
   d="m 387.335,410.933 c 0.911,0.046 1.366,0.07 2.277,0.117 14.681,0.033 30.526,-1.349 44.604,1.003 3.2,0.535 6.633,1.615 9.535,3.076 8.048,4.05 12.167,11.494 12.305,20.76 0.265,17.751 -11.494,29.144 -29.1,28.994 -2.057,-0.018 -5.866,-0.665 -11.322,-2.068 0,9.942 -0.001,19.885 0,29.827 0,2.184 2.705,3.774 7.383,3.994 0.814,0.038 1.292,0.216 1.292,0.661 0,0.438 0,0.655 0,1.094 -0.165,0.448 -0.534,0.673 -1.107,0.675 -11.634,0.063 -23.265,0.178 -34.898,0.349 -0.944,0.017 -1.6,-0.279 -1.969,-0.889 0,-0.116 0,-0.173 0,-0.289 0,-1.043 1.803,-1.335 4.432,-1.661 2.698,-0.335 4.433,-2.126 4.434,-4.36 0.002,-24.247 0.006,-48.494 0.008,-72.741 0,-2.808 -0.971,-4.527 -2.768,-4.966 -3.533,-0.862 -5.652,-1.368 -5.783,-1.43 -0.107,-0.05 -0.308,-0.099 -0.308,-0.293 0,-0.442 10e-4,-0.663 10e-4,-1.103 10e-4,-0.193 0.328,-0.442 0.984,-0.75 z m 28.301,4.532 c 10e-4,13.021 -0.001,26.042 -0.001,39.063 0,1.994 0.864,3.341 2.46,3.788 2.264,0.635 4.02,0.847 4.923,0.842 0.517,-0.003 0.775,-0.003 1.292,-0.005 2.009,-0.01 4.643,-1.148 6.584,-3.351 3.265,-3.702 4.799,-10.201 4.799,-17.269 0,-0.862 0,-1.291 0,-2.153 0,-6.285 -1.845,-11.825 -5.476,-16.773 -1.93,-2.63 -5.213,-3.9 -9.659,-3.992 -2.75,-0.057 -4.43,-0.147 -4.922,-0.15 z"
   id="path91"
   inkscape:connector-curvature="0" />
			<path
   d="m 446.82,410.883 c 15.627,-0.002 31.254,-0.007 46.881,-0.01 6.603,-10e-4 13.818,2.392 19.562,7.71 4.824,4.467 7.254,10.697 7.252,16.864 -0.003,10.731 -2.033,18.58 -6.094,22.646 -2.594,2.598 -7.051,4.812 -7.75,5.996 -0.506,0.858 4.915,10.322 12.541,23.222 3.279,5.548 6.874,9.337 10.817,10.94 3.741,1.521 7.171,2.479 10.206,2.702 0.122,0.188 0.184,0.278 0.306,0.465 0,0.288 -0.001,0.431 -0.001,0.716 0,0.146 -0.212,0.354 -0.492,0.402 -4.216,0.719 -9.017,-0.192 -11.313,-0.341 -1.845,-0.119 -2.765,-0.178 -4.609,-0.292 -6.066,-0.375 -12.295,-2.182 -18.57,-5.306 -3.788,-1.886 -7.748,-6.574 -11.683,-14.625 -3.541,-6.858 -5.313,-10.392 -8.855,-17.39 -1.722,-1.892 -3.709,-3.144 -5.963,-3.749 -0.32,-0.007 -0.48,-0.01 -0.801,-0.017 0,0.205 0,0.308 0,0.513 0,5.34 0.143,8.522 0.184,9.385 0.144,3.058 -0.188,6.993 -0.188,10.921 0,2.653 0,3.971 0,6.57 0,0.446 0.307,1.402 0.186,1.763 -0.028,0.085 -0.186,0.558 -0.186,1.318 0,0.576 0,0.862 0,1.436 0,1.95 0.98,3.418 2.645,3.882 3.363,0.938 5.801,1.211 6.211,1.458 0.074,0.327 0.111,0.488 0.186,0.813 0,0.23 0,0.345 0,0.574 0,0.153 -0.227,0.355 -0.678,0.605 -13.137,-0.479 -26.279,-0.792 -39.424,-0.928 -0.78,-0.008 -1.17,-0.393 -1.17,-1.158 0,-1.005 1.595,-1.423 4.246,-1.688 3.46,-0.347 5.473,-1.881 5.473,-3.936 0,-24.735 0.002,-49.471 0.002,-74.206 0,-2.178 -2.057,-3.763 -5.967,-4.493 -2.321,-0.433 -3.568,-0.833 -3.568,-1.317 0,-0.314 0,-0.471 0,-0.785 -0.001,-0.157 0.203,-0.378 0.614,-0.66 z m 33.715,4.659 c -0.837,0.004 -1.255,0.007 -2.092,0.011 0,11.497 -0.002,22.993 -0.004,34.489 0,2.779 2.397,4.585 7.195,5.448 1.059,0.02 1.588,0.029 2.646,0.05 4.552,0.087 7.919,-3.883 9.844,-11.705 0.674,-2.739 0.985,-5.771 0.986,-8.963 10e-4,-7.449 -2.806,-14.278 -7.871,-17.608 -2.051,-1.348 -4.267,-1.868 -5.414,-1.863 -0.123,0.047 -0.188,0.071 -0.311,0.118 -0.418,-0.045 -0.625,-0.067 -1.043,-0.113 -0.246,10e-4 -0.507,0.116 -0.615,0.121 -0.134,0.006 -0.381,-0.126 -0.492,-0.115 -0.378,0.038 -0.639,0.12 -0.68,0.12 -0.123,-0.046 -0.182,-0.069 -0.305,-0.115 -0.345,0.049 -0.517,0.073 -0.861,0.122 -0.083,0 -0.123,-0.038 -0.123,-0.117 -0.343,0.047 -0.515,0.071 -0.86,0.12 z"
   id="path93"
   inkscape:connector-curvature="0" />
			<path
   d="m 577.48,410.703 c 2.009,0 3.386,0.875 4.12,2.766 11.492,29.585 17.753,62.583 30.378,90.255 0.789,1.73 2.834,3.262 5.654,4.254 2.334,0.821 3.732,1.369 3.75,1.616 0.055,0.774 -0.35,1.393 -0.678,1.352 -12.32,-1.547 -24.661,-2.941 -37.016,-4.188 -0.86,-0.087 -1.354,-0.331 -1.477,-0.736 0,-0.214 0.002,-0.317 0.002,-0.533 0.001,-0.935 1.634,-1.188 4.428,-1.193 1.746,-0.003 2.768,-0.546 2.769,-1.348 0,-0.184 0,-0.275 0,-0.46 -0.531,-2.171 -1.427,-13.07 -6.076,-19.181 -0.078,-0.103 -0.366,-0.169 -0.612,-0.19 -8.904,-0.767 -13.357,-1.128 -22.262,-1.799 -0.533,0.724 -1.807,4.653 -3.818,10.986 -0.32,1.091 -0.481,1.63 -0.802,2.691 -0.002,3.669 3.999,5.926 10.51,7.938 0.63,0.194 0.983,0.662 0.983,1.239 0,0.688 -0.367,0.986 -1.105,0.92 -10.157,-0.908 -20.323,-1.719 -30.496,-2.426 -0.329,-0.132 -0.492,-0.434 -0.492,-0.91 0,-0.242 0,-0.363 0,-0.607 0,-0.369 1.809,-0.48 4.426,-1.021 3.675,-0.759 6.787,-3.472 8.429,-6.919 3.588,-10.146 6.752,-20.413 9.915,-30.696 4.913,-17.101 9.353,-36.521 16.516,-50.685 0.364,-0.72 1.478,-1.125 2.954,-1.125 z m -5.804,33.168 c -3.103,10.589 -6.056,21.265 -9.734,31.673 7.847,0.541 11.77,0.829 19.616,1.438 -3.301,-11.017 -6.537,-22.049 -9.697,-33.106 -0.075,-0.002 -0.111,-0.003 -0.185,-0.005 z"
   id="path95"
   inkscape:connector-curvature="0" />
			<path
   d="m 615.588,410.807 c 0.123,0.063 0.187,0.095 0.31,0.158 0.123,-0.063 0.183,-0.095 0.306,-0.158 0.147,0.063 0.222,0.094 0.369,0.157 0.163,-0.105 0.369,-0.158 0.615,-0.158 0.123,0 0.185,0.158 0.187,0.159 0.028,0.018 0.369,-0.157 0.492,-0.157 0.123,0 0.183,0.052 0.183,0.157 0.32,-0.063 0.481,-0.094 0.802,-0.157 0.345,0 0.517,-10e-4 0.861,-10e-4 0.082,0 0.123,0.053 0.123,0.158 0.147,-0.063 0.222,-0.094 0.369,-0.157 0.443,0 0.664,-10e-4 1.107,-10e-4 0.123,0 0.183,0.052 0.183,0.157 0.123,-0.063 0.187,-0.094 0.31,-0.157 0.468,0 0.699,0 1.167,0 0.123,0 0.185,0.053 0.185,0.158 0.123,-0.063 0.185,-0.095 0.308,-0.158 1.059,0 1.589,0 2.647,0 0.123,0 0.183,0.053 0.183,0.158 0.123,-0.063 0.187,-0.095 0.31,-0.158 9.745,0 14.616,10e-4 24.361,10e-4 0.163,0 0.432,0.189 0.494,0.422 0.021,0.076 -0.063,0.159 -0.187,0.159 0.074,0.107 0.111,0.161 0.185,0.269 -0.002,1.147 -1.942,1.389 -4.432,1.758 -1.736,0.257 -3.182,1.471 -3.634,2.661 -0.074,0.619 -0.112,0.933 -0.187,1.571 -0.026,29.815 -0.048,59.631 -0.084,89.446 -0.002,2.082 1.041,3.589 2.949,4.299 2.991,1.113 4.765,1.646 4.795,1.744 0.121,0.398 0.491,0.911 0.49,1.266 -0.074,-0.011 -0.11,-0.016 -0.185,-0.026 0.073,0.118 0.111,0.178 0.185,0.295 0,0.142 -0.166,0.255 -0.494,0.347 -9.741,-1.41 -14.611,-2.076 -24.352,-3.333 -0.123,-0.016 -0.183,-0.076 -0.183,-0.181 -0.123,0.047 -0.187,0.071 -0.31,0.118 -1.058,-0.136 -1.586,-0.203 -2.644,-0.338 -0.123,-0.016 -0.185,-0.076 -0.185,-0.181 -0.123,0.048 -0.185,0.07 -0.308,0.118 -0.468,-0.06 -0.699,-0.09 -1.167,-0.148 -0.083,-0.011 -0.123,-0.066 -0.123,-0.171 -0.147,0.045 -0.222,0.066 -0.369,0.111 -0.442,-0.056 -0.665,-0.085 -1.107,-0.141 -0.123,-0.016 -0.185,-0.073 -0.185,-0.178 -0.123,0.048 -0.185,0.07 -0.308,0.118 -0.345,-0.043 -0.517,-0.065 -0.861,-0.108 -0.246,-0.03 -0.515,-0.219 -0.615,-0.233 -0.111,-0.017 -0.429,0.103 -0.675,0.072 0,-0.063 0,-0.092 0,-0.155 -0.147,0.045 -0.222,0.065 -0.369,0.11 -0.246,-0.03 -0.452,-0.106 -0.615,-0.231 -0.147,0.045 -0.222,0.066 -0.369,0.111 -0.123,-0.078 -0.185,-0.116 -0.308,-0.194 -0.206,0.08 -0.478,0.132 -0.677,0.074 -0.438,-0.127 -0.758,-0.46 -0.798,-0.677 10e-4,-0.445 -10e-4,-0.672 0,-1.129 0,-0.399 1.209,-0.605 3.629,-0.605 0,0.067 10e-4,0.102 10e-4,0.169 3.28,-0.226 4.922,-1.172 4.924,-2.965 0.025,-29.354 0.053,-58.707 0.076,-88.061 0.002,-1.756 -1.858,-3.288 -4.733,-3.589 -0.109,-0.012 -0.17,0.155 -0.185,0.168 -0.459,0.406 -3.63,-0.649 -3.63,-1.05 0.001,-0.459 0.003,-0.686 0.004,-1.132 0.165,-0.39 0.554,-0.581 1.169,-0.581 z"
   id="path97"
   inkscape:connector-curvature="0" />
			<path
   d="m 647.881,410.859 c 15.627,0.003 31.254,-10e-4 46.881,0.002 6.604,0 13.852,2.104 19.553,8.153 4.86,5.156 7.198,13.03 7.24,21.194 0.052,10.068 -0.296,22.604 -6.12,30.882 -2.417,3.436 -7.269,6.613 -7.76,7.84 -1.875,4.686 8.028,21.811 12.525,31.643 3.307,7.229 6.879,11.705 10.818,13.91 3.751,2.1 7.176,3.516 10.213,4.124 0.123,0.214 0.185,0.321 0.308,0.532 0,0.303 -0.002,0.451 -0.002,0.746 0,0.151 -0.22,0.338 -0.492,0.352 -4.275,0.216 -9.026,-1.36 -11.324,-1.809 -1.846,-0.36 -2.771,-0.538 -4.616,-0.893 -6.071,-1.167 -12.288,-3.7 -18.576,-7.756 -3.788,-2.443 -7.742,-7.805 -11.67,-18.184 -3.535,-8.859 -5.305,-13.743 -8.84,-23.436 -1.721,-2.673 -3.708,-4.501 -5.962,-5.471 -0.32,-0.03 -0.479,-0.047 -0.8,-0.077 0,0.277 -0.002,0.418 -0.002,0.695 -0.007,7.218 0.135,11.379 0.175,12.542 0.142,4.094 -0.193,9.071 -0.198,13.859 -0.003,3.235 -0.005,4.795 -0.008,7.742 -0.001,0.506 0.325,1.589 0.183,1.996 -0.029,0.085 -0.186,0.6 -0.187,1.424 -10e-4,0.625 -0.003,0.933 -0.004,1.54 -0.003,2.065 0.955,3.627 2.642,4.306 3.361,1.353 5.8,1.93 6.21,2.224 0.073,0.327 0.111,0.488 0.185,0.809 0,0.22 -0.002,0.327 -0.002,0.543 0,0.145 -0.226,0.305 -0.677,0.476 -13.115,-2.211 -26.259,-4.255 -39.425,-6.141 -0.779,-0.111 -1.168,-0.493 -1.167,-1.175 10e-4,-0.896 1.563,-1.08 4.245,-0.985 3.445,0.122 5.477,-1.062 5.479,-3.154 0.031,-30.497 0.055,-60.994 0.086,-91.492 0.003,-2.239 -2.049,-3.761 -5.962,-4.459 -2.324,-0.415 -3.567,-0.783 -3.566,-1.219 0,-0.283 0,-0.423 0,-0.7 0,-0.142 0.207,-0.338 0.617,-0.583 z m 33.707,4.538 c -0.837,-0.002 -1.255,-0.004 -2.092,-0.006 -0.019,14.203 -0.03,28.407 -0.043,42.61 -0.003,3.763 2.395,6.364 7.192,7.829 1.059,0.089 1.587,0.133 2.646,0.223 4.553,0.387 7.923,-4.955 9.857,-15.473 0.679,-3.692 0.992,-7.735 0.996,-11.897 0.009,-9.71 -2.759,-17.745 -7.854,-21.385 -2.031,-1.451 -4.265,-2.002 -5.412,-2.005 -0.123,0.048 -0.185,0.073 -0.308,0.121 -0.418,-0.05 -0.628,-0.074 -1.046,-0.124 -0.246,-0.001 -0.509,0.115 -0.615,0.119 -0.132,0.005 -0.382,-0.133 -0.492,-0.123 -0.376,0.036 -0.637,0.119 -0.677,0.119 -0.123,-0.049 -0.185,-0.074 -0.308,-0.122 -0.345,0.047 -0.517,0.072 -0.861,0.119 -0.083,0 -0.123,-0.042 -0.123,-0.123 -0.344,0.047 -0.515,0.071 -0.86,0.118 z"
   id="path99"
   inkscape:connector-curvature="0" />
			<path
   d="m 737.506,410.813 c 0.123,0.066 0.183,0.098 0.306,0.164 0.123,-0.066 0.187,-0.1 0.31,-0.166 0.147,0.066 0.222,0.1 0.369,0.167 0.163,-0.11 0.369,-0.165 0.615,-0.165 0.123,0 0.182,0.165 0.183,0.165 0.028,0.017 0.369,-0.166 0.492,-0.166 0.123,0 0.187,0.055 0.187,0.166 0.32,-0.066 0.478,-0.099 0.798,-0.165 0.345,0 0.517,0 0.861,0 0.082,0 0.123,0.056 0.123,0.167 0.147,-0.066 0.222,-0.1 0.369,-0.166 0.443,0 0.664,0 1.107,0 0.123,0 0.185,0.055 0.185,0.166 0.123,-0.066 0.185,-0.1 0.308,-0.166 0.468,0 0.701,0 1.169,0 0.123,0 0.185,0.055 0.185,0.166 0.123,-0.066 0.187,-0.1 0.31,-0.166 1.059,0 1.585,0 2.644,0 0.123,0 0.185,0.055 0.185,0.167 0.123,-0.067 0.185,-0.101 0.308,-0.167 9.745,10e-4 14.618,0.003 24.363,0.004 0.163,0 0.429,0.202 0.492,0.458 0.021,0.085 -0.062,0.173 -0.185,0.173 0.074,0.117 0.111,0.176 0.185,0.293 -10e-4,1.256 -1.995,1.539 -4.434,1.933 -1.717,0.277 -3.18,1.628 -3.632,2.978 -0.074,0.703 -0.112,1.062 -0.187,1.794 -0.027,36.554 -0.047,73.108 -0.074,109.662 -0.002,2.39 1.03,4.122 2.949,5.028 2.974,1.404 4.77,2.104 4.801,2.22 0.125,0.462 0.494,1.036 0.494,1.423 -0.074,-0.017 -0.112,-0.023 -0.187,-0.04 0.074,0.133 0.11,0.198 0.185,0.33 0,0.153 -0.166,0.267 -0.494,0.345 -9.753,-2.167 -14.629,-3.21 -24.379,-5.228 -0.123,-0.025 -0.185,-0.094 -0.185,-0.205 -0.123,0.041 -0.185,0.062 -0.308,0.103 -1.059,-0.219 -1.589,-0.327 -2.647,-0.544 -0.123,-0.025 -0.183,-0.094 -0.183,-0.204 -0.123,0.041 -0.187,0.061 -0.31,0.102 -0.468,-0.096 -0.701,-0.143 -1.169,-0.238 -0.083,-0.017 -0.121,-0.081 -0.121,-0.191 -0.147,0.036 -0.224,0.057 -0.371,0.093 -0.443,-0.09 -0.664,-0.136 -1.107,-0.226 -0.123,-0.025 -0.185,-0.093 -0.185,-0.203 -0.123,0.042 -0.185,0.062 -0.308,0.103 -0.345,-0.069 -0.519,-0.105 -0.863,-0.175 -0.246,-0.05 -0.512,-0.269 -0.615,-0.289 -0.107,-0.021 -0.429,0.077 -0.675,0.027 0,-0.066 0,-0.098 0,-0.164 -0.147,0.037 -0.222,0.056 -0.369,0.092 -0.246,-0.05 -0.452,-0.147 -0.615,-0.29 -0.147,0.037 -0.224,0.056 -0.371,0.092 -0.123,-0.091 -0.185,-0.136 -0.308,-0.227 -0.206,0.068 -0.479,0.103 -0.677,0.028 -0.446,-0.166 -0.76,-0.534 -0.8,-0.766 10e-4,-0.469 10e-4,-0.708 0.002,-1.196 10e-4,-0.427 1.209,-0.569 3.631,-0.412 0,0.073 10e-4,0.109 10e-4,0.182 3.283,-0.03 4.926,-0.961 4.928,-2.979 0.048,-35.706 0.042,-71.413 0.09,-107.119 0.002,-1.979 -1.879,-3.663 -4.735,-3.994 -0.108,-0.013 -0.167,0.168 -0.183,0.182 -0.455,0.396 -3.631,-0.712 -3.63,-1.142 0.001,-0.491 0.001,-0.731 0.002,-1.202 0.163,-0.414 0.555,-0.612 1.17,-0.612 z"
   id="path101"
   inkscape:connector-curvature="0" />
			<path
   d="m 769.676,410.814 c 20.631,0.003 41.262,0.007 61.893,0.01 0.861,0 1.149,2.508 1.6,8.886 0.642,9.085 3.942,22.006 2.151,28.372 -0.157,0.559 -1.197,1.126 -1.663,0.971 -0.209,-0.069 -0.971,-4.156 -2.584,-10.521 -2.841,-11.209 -7.629,-17.625 -13.166,-20.849 -1.402,-0.579 -2.103,-0.862 -3.505,-1.415 -0.083,0 -1.395,-0.084 -3.938,-0.245 0,-0.056 0,-0.085 0,-0.141 -0.123,0.055 -0.187,0.084 -0.31,0.14 -1.255,-0.01 -1.881,-0.015 -3.136,-0.024 -0.394,-0.059 -0.591,-0.089 -0.984,-0.148 -0.164,0.092 -0.433,0.137 -0.802,0.134 -0.41,-0.003 -0.902,-0.053 -1.477,-0.15 -0.468,0.052 -0.699,0.079 -1.167,0.131 -0.246,-0.002 -0.505,-0.105 -0.679,-0.144 -1.865,-0.416 -3.629,0.381 -3.63,1.235 -0.013,17.573 -0.018,35.146 -0.025,52.718 0,0.291 0.227,0.715 0.679,1.271 0.665,0.071 0.996,0.105 1.661,0.178 7.058,0.763 11.407,-2.688 13.791,-8.651 1.496,-3.742 3.909,-9.897 5.299,-16.961 0.767,-3.894 1.211,-5.966 1.663,-5.943 0.049,0.002 0.074,0.005 0.123,0.008 1.107,0.323 1.663,0.72 1.663,1.191 -0.008,22.62 -0.012,45.239 -0.012,67.859 -0.247,1.897 -0.803,2.743 -1.665,2.582 -0.616,-0.115 -1.139,-2.935 -2.092,-7.914 -1.067,-5.577 -3.312,-11.791 -5.599,-17.77 -1.754,-4.586 -4.968,-7.26 -9.729,-7.836 -0.656,-0.079 -1.666,-0.491 -2.646,-0.65 -1.764,-0.287 -3.142,0.246 -3.142,0.828 -0.005,18.359 -0.006,36.72 -0.023,55.079 -10e-4,2.165 1.312,3.932 3.939,5.48 2.39,0.78 3.586,1.173 5.976,1.963 0.575,-0.004 1.067,0.042 1.479,0.14 0.468,0.111 0.701,0.167 1.169,0.278 6.242,1.485 10.989,0.146 14.297,-3.23 1.835,-1.873 4.093,-4.357 5.608,-7.525 1.994,-4.167 4.169,-10.061 6.593,-17.919 0.147,-0.061 0.222,-0.089 0.369,-0.149 0.395,0.074 0.592,0.111 0.986,0.187 0.163,0.031 0.554,0.581 0.615,1.225 0.964,10.138 -0.702,32.181 -4.622,38.353 -0.136,0.214 -0.741,0.299 -1.111,0.203 -21.079,-5.395 -42.214,-10.481 -63.447,-15.234 -0.78,-0.172 -1.17,-0.555 -1.169,-1.177 10e-4,-1.05 1.286,-1.146 3.328,-0.895 3.327,0.408 5.543,-0.767 5.545,-2.813 0.028,-37.904 0.043,-75.81 0.07,-113.714 0.002,-2.327 -1.414,-3.693 -4.243,-4.337 -1.451,-0.36 -2.176,-0.537 -3.628,-0.884 -0.329,-0.001 -0.593,-0.208 -0.798,-0.608 0,-0.456 0,-0.678 0,-1.116 0.003,-0.154 0.166,-0.307 0.495,-0.459 z"
   id="path103"
   inkscape:connector-curvature="0" />
		</g>
	</g>
</g>


<g
   id="RUMBLEenv"
   display="none"
   style="display:none"
   transform="translate(-26.913416,-276.24204)">
	<g
   display="inline"
   id="g158"
   style="display:inline">
		<g
   id="g156">
			<path
   d="m 200.68,286.037 c 15.702,1.542 31.393,3.192 47.083,4.848 6.671,0.703 13.988,4.11 19.866,10.589 4.983,5.493 7.446,12.456 7.487,19.146 0.072,11.638 -1.938,19.995 -6.034,24.395 -2.615,2.808 -7.451,5.587 -7.828,6.58 -1.293,3.407 8.396,17.451 12.895,25.258 3.388,5.879 7.066,9.789 11.077,11.264 3.807,1.4 7.305,2.194 10.389,2.196 0.126,0.198 0.191,0.298 0.318,0.495 0.002,0.32 0.002,0.48 0.005,0.799 0.001,0.164 -0.21,0.415 -0.498,0.49 -4.156,1.095 -9.162,0.486 -11.495,0.486 -1.875,0 -2.813,0 -4.688,0 -6.167,0 -12.513,-1.611 -18.908,-4.706 -3.857,-1.867 -7.917,-6.784 -11.962,-15.793 -3.638,-7.668 -5.454,-11.727 -9.08,-20.001 -1.755,-2.242 -3.777,-3.76 -6.062,-4.526 -0.324,-0.014 -0.486,-0.021 -0.81,-0.035 0.001,0.246 0.002,0.369 0.003,0.615 0.026,6.409 0.185,10.182 0.23,11.217 0.164,3.683 -0.151,8.29 -0.132,12.854 0.013,3.084 0.019,4.602 0.032,7.559 0.002,0.507 0.33,1.551 0.197,1.991 -0.03,0.1 -0.184,0.638 -0.18,1.491 0.003,0.647 0.003,0.97 0.006,1.609 0.01,2.177 1.025,3.75 2.708,4.191 3.395,0.892 5.899,1.092 6.317,1.345 0.077,0.354 0.115,0.53 0.192,0.881 0.001,0.25 0.002,0.376 0.003,0.625 0.001,0.167 -0.226,0.394 -0.682,0.681 -13.354,0 -26.708,0 -40.062,0 -0.792,0 -1.188,-0.393 -1.188,-1.197 0,-1.057 1.629,-1.529 4.31,-1.855 3.509,-0.427 5.555,-2.125 5.551,-4.417 -0.049,-30.102 -0.089,-60.203 -0.138,-90.305 -0.004,-2.437 -2.06,-4.368 -5.976,-5.552 -2.312,-0.699 -3.563,-1.252 -3.563,-1.762 0,-0.332 0,-0.498 0,-0.826 0.004,-0.166 0.208,-0.378 0.617,-0.63 z m 33.827,8.54 c -0.843,-0.086 -1.265,-0.128 -2.108,-0.215 0.065,13.407 0.119,26.813 0.171,40.22 0.014,3.335 2.448,5.605 7.31,6.776 1.071,0.056 1.607,0.083 2.679,0.14 4.609,0.241 7.999,-4.288 9.899,-13.103 0.667,-3.092 0.96,-6.51 0.939,-10.129 -0.047,-8.443 -2.823,-16.287 -8.079,-20.619 -2.072,-1.708 -4.32,-2.533 -5.478,-2.652 -0.124,0.039 -0.185,0.059 -0.309,0.098 -0.422,-0.095 -0.632,-0.144 -1.055,-0.239 -0.248,-0.025 -0.521,0.071 -0.621,0.067 -0.135,-0.005 -0.385,-0.182 -0.497,-0.182 -0.372,0.001 -0.642,0.065 -0.682,0.062 -0.125,-0.065 -0.187,-0.098 -0.312,-0.163 -0.347,0.016 -0.52,0.025 -0.867,0.042 -0.083,-0.009 -0.124,-0.055 -0.125,-0.143 -0.345,0.017 -0.518,0.023 -0.865,0.04 z"
   id="path144"
   inkscape:connector-curvature="0" />
			<path
   d="m 280.149,294.383 c 0.125,-0.061 0.187,-0.091 0.311,-0.152 11.965,1.225 23.936,2.398 35.915,3.485 0.209,0.019 0.447,0.471 0.51,1.2 0.093,1.083 -1.93,1.228 -4.51,1.369 -1.818,0.1 -3.379,1.256 -3.873,2.508 -0.046,0.649 -0.07,0.975 -0.116,1.63 0.083,13.011 0.154,26.023 0.229,39.034 -0.038,9.389 -0.247,19.402 2.663,28.388 2.515,7.766 7.07,11.416 13.574,11.438 8.671,0.03 14.672,-5.286 18.193,-16.071 1.156,-3.541 1.78,-8.841 1.753,-15.888 -0.003,-0.718 -0.005,-1.077 -0.008,-1.795 -0.054,-12.838 -0.195,-25.706 -0.279,-38.513 -0.015,-2.265 -1.796,-5.091 -5.121,-7.249 -1.31,-0.851 -3.483,-1.63 -6.042,-2.452 -0.203,-0.286 -0.304,-0.428 -0.506,-0.712 0,-0.122 0,-0.183 -10e-4,-0.304 -0.004,-0.77 0.392,-1.118 1.188,-1.053 11.163,0.919 16.749,1.342 27.917,2.069 0.67,0.125 1.006,0.308 1.007,0.55 0.001,0.267 0.001,0.399 0.002,0.666 0.003,0.891 -1.216,1.145 -2.824,1.398 -4.625,0.729 -7.779,4.288 -7.765,8.273 0.05,13.363 0.096,26.725 0.142,40.088 0.313,11.658 -2.659,24.837 -11.577,32.73 -3.27,2.895 -7.802,5.369 -13.346,6.589 -3.14,0.691 -5.307,0.971 -6.307,0.971 -0.125,0 -0.188,-0.06 -0.188,-0.181 -0.35,0.073 -0.525,0.108 -0.875,0.181 -1.65,0 -2.475,0 -4.125,0 -0.125,0 -0.188,-0.061 -0.188,-0.182 -0.125,0.073 -0.188,0.109 -0.312,0.182 -2.793,-0.242 -4.19,-0.464 -4.192,-0.667 -0.149,0.073 -0.225,0.109 -0.375,0.182 -6.009,-1.338 -10.88,-3.903 -14.552,-7.897 -3.653,-3.974 -6.085,-9.71 -7.486,-17.083 -0.323,-1.701 -0.773,-4.062 -0.917,-6.735 -0.604,-11.201 -0.265,-23.413 -0.34,-35.119 -0.06,-9.695 -0.089,-14.471 -0.149,-23.31 -0.014,-2.006 -1.693,-3.502 -5.034,-4.546 -0.149,0.06 -0.225,0.089 -0.375,0.149 -2.213,-0.598 -3.382,-1.111 -3.51,-1.538 -0.004,-0.522 -0.005,-0.78 -0.009,-1.297 0.6,-0.134 0.899,-0.201 1.498,-0.336 z"
   id="path146"
   inkscape:connector-curvature="0" />
			<path
   d="m 361.66,301.298 c 9.4,0.615 18.808,1.133 28.219,1.54 0.543,0.023 2.763,6.636 6.925,19.625 4.169,13.009 8.689,26.212 13.24,39.248 0.15,0 0.226,10e-4 0.375,10e-4 5.218,-19.052 9.183,-41.344 16.384,-56.946 0.285,-0.617 1.083,-0.988 2,-0.985 9.769,0.028 19.54,-0.07 29.306,-0.285 0.167,-0.004 0.337,0.156 0.504,0.479 0,0.196 0,0.295 0,0.491 -10e-4,1.227 -1.862,1.592 -4.52,1.94 -2.66,0.348 -4.391,1.892 -4.391,3.539 -0.002,9.448 -0.003,18.896 -0.008,28.344 -0.008,14.618 -0.104,29.265 -0.137,43.854 -0.01,4.323 1.32,6.162 2.123,6.494 0.235,0.097 4.166,0.257 5.873,1.488 0.199,0.144 0.313,0.699 0.313,0.984 0,0.393 -10e-4,0.59 -10e-4,0.983 0,0.164 -0.167,0.326 -0.5,0.489 -11.708,0 -23.417,0 -35.125,0 -0.125,0 -0.292,-0.165 -0.5,-0.496 0,-0.397 0,-0.595 0,-0.992 0,-0.992 1.271,-1.356 3.375,-1.494 3.063,-0.2 4.875,-1.984 4.875,-4.679 0,-0.704 0.09,-1.301 0.125,-1.678 0.694,-7.31 -0.125,-14.689 -0.125,-19.508 0,-13.729 -0.001,-27.457 -0.001,-41.185 -0.35,-0.053 -0.525,-0.079 -0.875,-0.132 -0.075,-10e-4 -0.112,-10e-4 -0.188,-0.002 -7.127,22.208 -12.802,45.516 -19.501,67.212 -0.598,1.937 -1.895,2.954 -3.686,2.954 -1.075,0 -1.612,0 -2.688,0 -2.042,0 -3.469,-3.191 -5.008,-8.356 -5.288,-17.748 -12.733,-37.705 -19.05,-56.065 -0.395,-1.148 -0.864,-1.803 -1.133,-1.764 -0.462,0.066 -0.837,0.406 -0.877,0.658 0.034,17.448 0.07,34.896 0.104,52.344 0.009,4.622 3.833,9.182 9.084,10.073 1.094,0.186 2.069,0.621 2.005,1.647 -0.058,0.92 -0.583,1.463 -1.374,1.463 -10.425,0 -15.638,0 -26.063,0 -0.334,0 -0.5,-0.482 -0.503,-1.455 -0.003,-0.932 1.949,-1.494 4.179,-2.442 3.465,-1.472 5.675,-5.456 5.666,-9.298 -0.052,-21.293 -0.103,-42.585 -0.154,-63.878 -0.012,-4.892 -2.09,-8.644 -5.745,-10.151 -2.229,-0.919 -3.712,-1.547 -3.714,-2.197 0,-0.195 -0.001,-0.291 -0.002,-0.485 0.002,-0.973 0.397,-1.429 1.194,-1.377 z"
   id="path148"
   inkscape:connector-curvature="0" />
			<path
   d="m 456.227,303.536 c 13.163,-0.272 26.321,-0.743 39.471,-1.398 9.936,-0.88 21.848,1.92 25.74,11.997 0.808,2.09 1.294,5.035 1.15,8.303 -0.182,4.128 -2.045,9.315 -5.275,13.705 -2.637,3.582 -6.16,5.955 -9.439,6.842 -1.526,0.413 -2.513,0.602 -2.889,0.614 -0.001,0.156 -0.001,0.234 -0.002,0.391 0.803,-0.025 1.205,-0.039 2.008,-0.064 7.569,-0.242 14.443,3.967 18.256,11.982 1.65,3.471 2.278,7.141 2.264,9.981 -10e-4,0.21 -10e-4,0.314 -0.002,0.523 -0.002,0.35 0.061,0.524 0.186,0.523 -0.077,0.367 -0.116,0.55 -0.193,0.917 -0.002,0.418 -0.004,0.626 -0.006,1.043 0.407,11.014 -6.552,20.043 -17.123,22.545 -2.82,0.667 -7.172,1.144 -12.881,1.144 -13.938,0 -27.875,0 -41.813,0 -0.291,0 -0.48,-0.408 -0.5,-1.167 -0.024,-0.958 1.447,-1.284 3.689,-1.472 3.085,-0.259 5.002,-1.647 5.004,-3.247 0.021,-25.531 0.048,-51.063 0.068,-76.594 0.002,-1.765 -1.11,-3.04 -3.008,-3.36 -3.631,-0.612 -5.898,-0.867 -5.898,-1.4 0,-0.246 0,-0.369 0,-0.615 -10e-4,-0.78 0.399,-1.177 1.193,-1.193 z m 28.576,3.479 c -0.076,0.15 -0.111,0.227 -0.188,0.377 -0.026,11.642 -0.053,23.285 -0.078,34.927 3.412,-0.087 5.118,-0.134 8.531,-0.233 3.012,-0.087 5.951,-2.471 7.928,-6.836 1.703,-3.763 2.413,-8.133 2.428,-12.292 0.021,-6.025 -2.439,-11.546 -7.051,-14.65 -1.868,-1.258 -4.246,-1.781 -6.223,-1.654 -2.352,0.149 -4.174,0.31 -5.347,0.361 z m -0.278,40.601 c -0.021,11.768 -0.051,23.535 -0.077,35.303 -0.005,2.266 3.24,4.37 8.495,4.806 5.301,0.44 9.73,-2.198 11.902,-6.476 1.614,-3.18 2.533,-7.534 2.555,-13.053 0.044,-11.294 -5.313,-18.908 -14.66,-20.443 -1.561,-0.256 -3.678,-0.233 -6.02,-0.183 -0.877,0.018 -1.317,0.027 -2.195,0.046 z"
   id="path150"
   inkscape:connector-curvature="0" />
			<path
   d="m 526.85,300.446 c 0.126,-0.081 0.19,-0.122 0.316,-0.202 1.586,-0.135 2.379,-0.205 3.965,-0.344 10.292,-0.729 20.577,-1.548 30.855,-2.454 0.209,-0.019 0.44,0.399 0.492,1.099 0.061,0.813 -1.164,1.617 -3.402,2.065 -2.845,0.569 -4.344,2.077 -4.363,4.708 -0.181,24.125 -0.327,48.25 -0.492,72.374 -0.033,4.671 0.797,7.366 1.939,8.339 0.983,0.838 4.323,1.488 9.991,1.479 1.425,-0.002 2.14,-0.004 3.564,-0.006 9.126,-0.016 15.075,-2.599 18.048,-6.068 2.308,-2.694 5.325,-7 7.285,-12.956 0.958,-2.91 1.477,-7.18 2.754,-9.498 0.271,-0.492 1.082,-0.891 1.504,-0.842 0.69,0.081 1.21,0.689 1.178,1.331 -0.529,10.595 -1.862,22.135 -3.436,33.112 -24.625,0 -49.25,0 -73.875,0 -1.124,-0.12 -1.686,-0.339 -1.684,-0.661 0.002,-0.433 0.002,-0.649 0.004,-1.084 0.168,-0.443 0.67,-0.665 1.504,-0.665 0.8,0 1.2,0 2,0 3.959,0 6.63,-3.563 7.715,-4.291 0.184,-0.124 0.813,-3.47 0.94,-10.82 0.101,-17.358 0.198,-34.716 0.294,-52.074 0.024,-4.189 1.233,-11.857 -0.086,-17.208 -0.37,-1.502 -4.206,-2.145 -4.512,-2.431 -0.023,-0.022 -0.231,-0.226 -0.691,-0.314 -0.126,0.082 -0.188,0.123 -0.314,0.205 -1.844,-0.274 -2.848,-0.528 -3.014,-0.759 0.003,-0.581 0.005,-0.872 0.008,-1.449 0.606,-0.236 0.907,-0.352 1.513,-0.586 z"
   id="path152"
   inkscape:connector-curvature="0" />
			<path
   d="m 594.167,294.287 c 20.793,-2.253 41.552,-4.731 62.297,-7.387 0.858,-0.111 1.133,2.62 1.582,8.006 0.855,10.263 2.767,19.616 2.131,21.405 -0.16,0.451 -1.142,0.987 -1.666,0.932 -0.206,-0.021 -0.99,-2.819 -2.578,-7.238 -2.803,-7.8 -7.604,-12.691 -13.145,-14.838 -1.404,-0.332 -2.106,-0.498 -3.512,-0.823 -0.083,0.01 -1.399,0.105 -3.953,0.281 0,-0.052 0,-0.077 0,-0.129 -0.124,0.066 -0.187,0.099 -0.311,0.165 -1.261,0.15 -1.892,0.226 -3.154,0.375 -0.396,-0.005 -0.593,-0.006 -0.988,-0.011 -0.166,0.106 -0.434,0.18 -0.805,0.224 -0.413,0.049 -0.909,0.065 -1.486,0.046 -0.471,0.106 -0.707,0.158 -1.178,0.265 -0.248,0.029 -0.51,-0.033 -0.68,-0.048 -1.946,-0.174 -3.659,0.805 -3.664,1.583 -0.09,13.221 -0.162,26.441 -0.234,39.662 -10e-4,0.202 0.225,0.463 0.68,0.786 0.672,-0.044 1.008,-0.064 1.68,-0.108 7.132,-0.466 11.618,-3.614 13.945,-7.945 1.54,-2.867 3.958,-7.411 5.371,-12.712 0.762,-2.858 1.229,-4.518 1.684,-4.564 0.05,-0.005 0.071,-0.007 0.121,-0.012 1.111,0.083 1.669,0.299 1.668,0.646 -0.04,15.73 -0.085,31.46 -0.13,47.191 -0.253,1.383 -0.815,2.083 -1.687,2.11 -0.622,0.02 -1.166,-1.988 -2.099,-5.259 -1.044,-3.661 -3.322,-7.688 -5.611,-11.448 -1.746,-2.869 -4.992,-4.254 -9.802,-3.967 -0.664,0.04 -1.668,-0.096 -2.674,-0.069 -1.913,0.052 -3.176,0.618 -3.178,1.021 -0.074,13.521 -0.152,27.042 -0.234,40.563 -0.012,1.864 1.309,3.197 3.969,4.05 2.422,0.199 3.636,0.3 6.059,0.499 0.583,-0.131 1.084,-0.198 1.501,-0.199 0.475,-10e-4 0.711,-0.003 1.186,-0.004 6.329,-0.021 11.146,-2.358 14.503,-5.839 1.923,-1.994 4.147,-4.355 5.689,-7.081 2.014,-3.561 4.223,-8.314 6.668,-14.257 0.149,-0.067 0.222,-0.102 0.371,-0.169 0.397,-0.014 0.599,-0.02 0.996,-0.034 0.165,-0.006 0.561,0.367 0.619,0.757 1.096,7.317 -1.485,25.325 -4.686,31.372 -0.153,0.29 -0.752,0.5 -1.127,0.5 -21.458,0 -42.915,0 -64.373,0 -0.792,0 -1.186,-0.32 -1.18,-0.971 0.009,-1.097 1.354,-1.472 3.387,-1.662 3.454,-0.324 5.64,-1.976 5.654,-3.856 0.215,-28.5 0.391,-57 0.609,-85.5 0.017,-2.104 -1.407,-3.281 -4.271,-3.599 -1.469,-0.192 -2.202,-0.289 -3.672,-0.479 -0.334,0.035 -0.604,-0.143 -0.809,-0.53 0.004,-0.466 0.008,-0.699 0.012,-1.16 0.002,-0.165 0.17,-0.344 0.505,-0.541 z"
   id="path154"
   inkscape:connector-curvature="0" />
		</g>
	</g>
</g>

<g
   id="Layer_8"
   display="none"
   style="display:none"
   transform="translate(-26.913416,-276.24204)">
	<rect
   x="264.77499"
   y="403.16699"
   display="inline"
   width="2.474"
   height="114.833"
   id="rect178"
   style="display:inline;fill:#cccccc" />
</g>
<path
   inkscape:connector-curvature="0"
   style="font-style:normal;font-variant:normal;font-weight:normal;font-stretch:normal;font-size:25.39999962px;line-height:1.25;font-family:'Super Smash 4.1';-inkscape-font-specification:'Super Smash 4.1, ';letter-spacing:-1.32291663px;word-spacing:0px;display:inline;opacity:1;fill:#ffffff;fill-opacity:1;stroke:none;stroke-width:1.31024587"
   d="m 186.02937,0.01025087 c -0.63462,-0.0913 -1.1017,0.44255 -1.10168,0.99328003 0.0488,0.50933 0,1.32355 0,1.32355 0.0103,0.57711 0.28488,1.25582 1.14453,1.38908 4.30972,0.66928 7.94126,2.81338 7.94126,7.1748501 0.0396,23.55699 0.0182,59.47611 0.008,74.56705 h 19.77245 c 0.005,-12.24431 -0.0103,-25.39687 -0.0103,-25.39686 4.10779,0.005 6.26166,1.91851 7.27066,4.53029 2.7671,7.0978 7.95024,20.34204 8.15554,20.86657 h 4.03616 v -41.96256 c -0.64329,2.97721 -1.67451,5.9004 -3.36305,8.16562 -2.29935,2.62222 -4.56811,3.44226 -7.58831,3.21935 -3.65043,-0.62597 -8.60409,-2.86855 -8.511,-7.08913 0.0488,-12.68868 0,-38.2465501 0,-38.2465501 0.55543,0.0787 1.19448,0.15638 1.89582,0.2521 2.1057,0.2885101 4.75536,0.7236701 7.30595,1.7470701 3.61906,1.45208 5.63013,4.02394 7.30595,7.40931 1.14305,2.30917 2.21613,4.89721 2.95464,7.70175 V 8.2565409 c -4.24256,-1.58518 -7.83878,-2.04845 -11.48077,-2.64708 -11.9119,-1.7065 -23.82371,-3.57411 -35.73561,-5.59921003 z M 633.83751,1.1724409 c -0.2065,-0.0186 -0.45534,-8.3e-4 -0.75883,0.0479 -8.22368,1.41242 -24.77922,3.84961 -24.77921,3.84961 -5.99908,0.93285 -18.12369,2.52356 -18.12369,2.52356 -5.82853,0.82748 -17.61445,2.2185 -17.61444,2.2185 -0.63439,0.0902 -1.10169,0.6993301 -1.10169,1.1974901 0.0488,0.44833 0,1.20001 0,1.20001 0.0103,0.51951 0.28486,1.06415 1.14455,0.958 4.3097,-0.53117 7.94124,0.4648 7.94124,4.54038 0.0385,21.19858 0.0187,52.64637 0.008,67.75017 h 19.76488 c 0.0271,-10.87362 -0.003,-27.06075 -0.003,-27.06075 0,0 -0.0679,-0.86208 0.31261,-1.32606 0.38003,-0.46322 2.66704,-0.70748 4.46979,-0.83698 1.79928,-0.12924 5.18088,-0.12069 7.68661,0.96302 2.50725,1.08433 3.93132,3.26184 6.15889,7.40932 2.23039,4.1528 3.82621,9.81235 4.20507,10.42194 0.37906,0.60962 0.77146,0.54071 1.43195,0.28739 0.66045,-0.25329 0.9227,-0.48342 0.9227,-1.44706 0.0488,-14.677 0,-44.18359 0,-44.18359 0,-0.96368 -0.26244,-1.15332 -0.9227,-1.2958 -0.66049,-0.1425 -1.05313,-0.14844 -1.43195,0.52438 -0.37906,0.67274 -1.31716,4.73554 -3.44876,10.22277 -2.13,5.48287 -3.94769,9.27303 -7.83789,11.20598 -3.88094,1.92829 -7.53647,2.20983 -8.27655,2.29162 -0.75167,0.0831 -2.5759,0.38414 -2.95716,-0.0252 -0.38004,-0.40858 -0.31261,-1.28069 -0.31261,-1.28069 0.0488,-12.80139 0,-38.54907 0,-38.54907 0,-1.25436 0.56763,-1.73882 1.58572,-1.87565 6.69847,-0.9305801 13.45779,-1.9580201 18.29009,-0.21681 4.8521,1.74829 7.65122,4.68227 10.75219,9.99085 3.10423,5.31427 4.43586,10.87846 4.87063,11.5438 0.43468,0.66536 0.62443,0.6153 1.1874,0.30503 0.56298,-0.31026 0.57698,-0.6396 0.46891,-1.54791 -0.84193,-9.47282 -2.66221,-28.3489901 -2.66221,-28.3489901 -0.12042,-1.00155 -0.3511,-1.40127 -0.97059,-1.45715 z m -398.1514,8.08999 V 85.458061 h 15.71358 c -4.92251,-10.08693 -11.23119,-23.13298 -11.23119,-23.13298 9.59996,-3.27851 14.3371,-10.0018 14.3371,-24.86492 1e-5,-10.25367 -4.80671,-17.27588 -8.40007,-21.1943 -3.08811,-3.36653 -6.64452,-5.38018 -10.41942,-7.0034301 z m 22.6086,1.0790001 c -0.63437,-0.059 -1.10169,0.44038 -1.10169,0.93783 0.0488,0.45832 0,1.19748 0,1.19748 0.0103,0.52092 0.2824,1.1235 1.14203,1.21261 4.30968,0.44785 7.94377,2.25427 7.94377,6.21182 0.0496,17.45939 0.003,52.19795 0.003,52.19795 0,4.60104 0.47645,9.14202 1.57061,13.35894 h 19.7674 c -1.0266,-3.63674 -1.56842,-8.05821 -1.56809,-13.26314 0.0478,-16.76412 -0.003,-50.45087 -0.003,-50.45087 2e-5,-3.89024 3.63406,-4.92708 7.94378,-4.52273 0.85966,0.0808 1.13213,-0.44779 1.14202,-0.94538 0.0488,-0.32701 0,-1.14707 0,-1.14707 -3e-5,-0.47698 -0.46675,-1.05054 -1.10169,-1.12186 -11.91262,-1.06236 -23.82546,-2.28461 -35.73813,-3.66558 z m 284.00166,2.73784 c -11.91265,1.15125 -23.82544,2.14224 -35.73813,2.97481 v 0.003 c -0.63445,0.058 -1.1017,0.60981 -1.1017,1.07648 0.0488,0.4219 0,1.12438 0,1.12438 0.0103,0.48702 0.28497,1.00756 1.14455,0.94286 4.30971,-0.32331 7.94377,0.75254 7.94377,4.55047 0.0372,19.11143 0.019,46.76401 0.008,61.70726 h 19.76236 c 0.0349,-23.81703 -0.003,-63.20727 -0.003,-63.20727 0,-3.8526 3.63401,-5.55081 7.94377,-5.91939 0.85964,-0.0734 1.1346,-0.65631 1.14455,-1.16219 0.0488,-0.33994 0,-1.1622 0,-1.1622 0,-0.48331 -0.46923,-0.97425 -1.10421,-0.92774 z m -230.42472,2.40002 c -0.44818,-0.0342 -0.64538,0.21433 -0.64538,0.60757 0.0488,0.45584 0,1.20254 0,1.20254 0.0103,0.49251 0.24104,0.63797 0.6832,0.67059 4.30971,0.28524 9.67572,5.82925 9.67571,9.56731 0.0488,15.30847 0,45.75671 0,45.75671 -9e-5,4.22042 -0.87873,8.44269 -2.53615,12.17405 h 8.40763 c 1.29279,-3.92192 1.89835,-7.86836 1.89834,-11.35976 0.0496,-15.32625 0.003,-46.12478 0.003,-46.12478 0,-6.95947 4.68779,-7.87575 8.73032,-7.65637 5.29228,0.33959 8.40009,4.66188 8.40007,8.07234 0.0386,17.8883 0.0186,44.52377 0.008,57.06857 h 7.76981 c 0.0182,-18.71994 -0.005,-43.17265 -0.005,-43.17265 0,0 0.044,-0.46798 0.48656,-0.45378 0.35905,0.0116 0.51932,0.31764 0.51932,0.31764 4.83758,14.6196 10.00624,30.10301 14.40769,43.30879 h 20.91951 c 4.81924,-16.39551 11.3917,-38.85338 13.90096,-47.29706 0,0 0.14886,-0.41236 0.59245,-0.37815 0.44395,0.0342 0.47899,0.44622 0.47899,0.44622 0.0341,14.23873 0.0213,33.96493 0.0103,47.22899 h 19.76236 c 0.0189,-25.12273 -0.005,-58.24085 -0.005,-58.24085 0,-3.63488 3.63654,-4.96033 7.94628,-4.99164 0.85979,-0.006 1.13218,-0.53149 1.14203,-1.00337 0.0488,-0.31412 0,-1.08657 0,-1.08657 0,-0.45145 -0.46487,-0.9461 -1.09917,-0.95042 -9.2464,0.18826 -27.88008,0.13109 -27.88008,0.13109 -0.6343,0.0103 -1.6001,-0.13171 -2.39246,0.37311 -0.79245,0.50494 -1.01849,1.83532 -1.01849,1.83532 -5.31527,18.40902 -16.11947,55.22568 -16.11947,55.22568 -6.13402,-18.42709 -18.5447,-55.78031 -18.5447,-55.78031 -0.32588,-0.98872 -0.52095,-1.64569 -0.97816,-2.01934 -0.4576,-0.37399 -0.94332,-0.48253 -2.2891,-0.53194 -8.29583,-0.25545 -25.02878,-1.15465 -25.02878,-1.15465 -0.14036,0.0419 -0.56725,-0.0302 -0.56725,-0.0302 -4.29579,-0.19017 -13.03372,-0.7916 -13.03372,-0.7916 -4.4838,-0.24398 -13.59844,-0.96304 -13.59844,-0.96304 z m 166.36786,2.40003 c -2.10122,-0.0129 -4.11558,0.0876 -6.00258,0.13613 -11.91186,0.52653 -23.82375,0.89376 -35.73561,1.10169 -0.63464,0.0249 -1.10421,0.53423 -1.10421,0.98572 0.0488,0.41043 0,1.08656 0,1.08656 0.0103,0.47156 0.28491,0.98903 1.14455,0.96808 4.3097,-0.10404 7.94377,1.10686 7.94377,4.75719 0.0364,18.01888 0.0215,43.76069 0.0103,58.54337 h 19.75731 c 9e-5,-17.47107 9e-5,-40.68679 0,-22.61365 1.74157,0.0161 5.07735,-0.10081 5.07735,-0.10081 7.09372,-0.14924 11.20856,3.04173 14.17575,6.74124 2.57049,3.20484 3.51937,7.45182 3.51937,12.09841 0,1.21351 -0.0245,2.52684 -0.0983,3.87484 h 19.70438 c 0.0627,-0.99658 0.0933,-2.02696 0.0933,-3.09583 0,-6.29994 -2.04175,-11.39331 -4.3866,-14.98501 -1.98179,-3.03567 -4.67884,-5.74806 -9.30008,-7.24544 -2.39168,-0.77495 -5.47199,-1.09175 -8.49587,-0.88488 0.0488,-0.10106 0,-0.44874 0,-0.44874 12.29829,-1.19695 16.99668,-15.00542 16.99679,-20.18086 0,-6.90856 -2.39112,-11.91065 -5.37988,-14.78583 -2.98934,-2.87574 -6.92132,-4.59991 -11.39759,-5.41014 -2.23264,-0.40413 -4.42068,-0.52956 -6.5219,-0.54202 z m -8.31941,4.3639 c 1.3625,0.0414 3.03002,0.24148 4.18743,0.80673 3.09561,1.51186 4.96146,3.62264 6.46896,6.0782 0.97502,1.58828 2.47571,6.32604 2.47566,9.81438 0,4.34041 -0.76234,9.80144 -3.02524,13.35389 -2.26171,3.5508 -4.10314,4.97658 -7.12191,5.05214 -2.11907,0.053 -5.11439,0.12134 -8.65217,0.19665 0.0488,-7.61351 0,-22.9792 0,-22.9792 0.0488,-0.83551 0,-2.6496 0,-2.6496 0.0488,-3.00608 0,-9.15891 0,-9.15891 1.60512,-0.25806 3.00805,-0.45644 4.43701,-0.50925 0.35641,-0.0132 0.77609,-0.0188 1.23026,-0.005 z m 103.44544,50.46346 c -0.44673,-0.0481 -0.78388,0.19323 -1.17227,0.70085 -0.5015,0.65556 -1.52977,5.50251 -3.75381,12.05053 h 5.23365 c 0.52898,-6.00888 0.95043,-10.8959 0.95043,-10.8959 0.0765,-0.85411 -0.0523,-1.38255 -0.76891,-1.70926 -0.17929,-0.0816 -0.34017,-0.13018 -0.48909,-0.14622 z m 66.75438,0.40337 c -0.23841,0.0383 -0.43719,0.21699 -0.72858,0.63782 -0.45038,0.65061 -2.33964,6.21884 -5.12273,11.71019 h 5.62442 c 0.79288,-5.77781 1.47227,-10.76228 1.47227,-10.76228 0.12882,-0.93379 0.11372,-1.26046 -0.55715,-1.46977 -0.16768,-0.0523 -0.30729,-0.0915 -0.43109,-0.11088 -0.0928,-0.0146 -0.17768,-0.0178 -0.25714,-0.005 z m -446.10141,14.78585 c -0.001,2.28798 -0.005,9.70596 -0.005,9.70596 0,4.361909 -3.63154,5.909319 -7.94126,5.843749 -0.85996,-0.0103 -1.13464,0.61703 -1.14453,1.19245 0.0488,0.50132 0,1.32605 0,1.32607 0,0.55055 0.46724,1.163 1.10168,1.17983 11.96387,0.0653 35.73813,0.0151 35.73813,0.0151 0.63462,-0.0146 1.10421,-0.59487 1.10421,-1.1143 0.0488,-0.36052 0,-1.25296 0,-1.25296 -0.0103,-0.54308 -0.28488,-1.14233 -1.14455,-1.1395 -4.30971,0.0103 -7.94377,-1.50657 -7.94377,-5.765599 0.0103,-2.65462 0.005,-6.55753 0.008,-9.99084 z m 36.20201,0 c 0.9965,2.33727 2.00841,4.36409 3.02523,6.15383 v -6.15383 z m 5.46559,0 v 9.92529 c 1.56441,2.0839 3.12751,3.572879 4.66138,4.424409 5.9273,3.50041 11.7467,5.19328 17.44301,5.19332 5.38215,0.0293 11.15523,-0.10236 15.53208,-0.53194 0.34715,-0.039 0.55171,-0.44335 0.54454,-0.62016 -0.0103,-0.27028 -0.0181,-0.54136 -0.0328,-0.81178 0,-0.46882 -0.36607,-0.4917 -0.58487,-0.49916 -1.93973,-0.0674 -6.37516,-0.79194 -9.91775,-2.38237 -3.21379,-1.95068 -6.11032,-5.276469 -8.92444,-10.963969 -0.48121,-0.977 -1.25284,-2.5743 -1.82019,-3.73364 z m 32.8818,0 c 3.66415,11.11829 12.1737,19.417449 28.6137,19.419489 16.15611,0.003 25.24977,-9.289919 29.3927,-19.419489 h -8.76058 c -3.37859,5.84016 -8.94878,9.95281 -16.44469,9.88747 -5.9824,0.009 -10.42398,-3.33892 -12.94297,-9.88747 z m 77.92506,0 c -0.001,2.0402 -0.005,8.13284 -0.005,8.13284 10e-6,3.68773 -5.366,8.767179 -9.67571,8.727809 -0.44176,-7.4e-4 -0.67329,0.12507 -0.68321,0.60756 0.0488,0.44492 0,1.18489 0,1.18489 0,0.38638 0.19713,0.64281 0.64539,0.64287 4.58334,0.0507 13.60096,0.003 13.60096,0.003 4.58329,0.0502 13.60096,0.003 13.60096,0.003 0.44833,5e-5 0.64286,-0.25477 0.64286,-0.63529 0.0488,-0.33955 0,-1.16724 0,-1.16724 -0.0103,-0.47566 -0.24106,-0.59953 -0.6832,-0.60002 -4.30976,0.0244 -9.67572,-5.020509 -9.67571,-8.720229 0.006,-2.17636 10e-4,-5.56517 0.005,-8.17823 z m 23.99012,0 c 1.43223,4.29661 5.21853,15.685839 5.21853,15.685839 0.72265,2.15464 1.61474,3.85971 4.51012,3.85971 3.22445,4e-5 3.95395,-0.67352 5.00678,-3.84963 0.30537,-0.9211 2.27758,-7.600599 4.65885,-15.695919 z m 35.09023,0 c -0.004,4.09854 -0.008,11.39001 -0.008,11.39001 0,3.634129 -3.63391,4.926589 -7.94377,4.893319 -0.85976,-0.005 -1.13459,0.5117 -1.14454,0.9832 0.0488,0.41077 0,1.08657 0,1.08657 0,0.45174 0.46982,0.95202 1.10422,0.96554 11.96471,0.0493 35.74064,0 35.74064,0 0.63465,-0.0146 1.09917,-0.51404 1.09917,-0.96554 0.0488,-0.31321 0,-1.08657 0,-1.08657 -0.0103,-0.47175 -0.28238,-0.99265 -1.14203,-0.98572 -4.30974,0.0342 -7.94629,-1.26059 -7.94628,-4.895839 0.006,-3.03166 10e-4,-7.72844 0.005,-11.38497 z m 38.91966,0 c -0.003,3.55502 -0.008,11.33958 -0.008,11.33958 0,3.650679 -3.63407,4.949649 -7.94378,4.921049 -0.85983,-0.004 -1.13465,0.51389 -1.14455,0.98574 0.0488,0.41125 0,1.08655 0,1.08655 0,0.45176 0.46933,0.95453 1.10422,0.96808 13.76593,0.0493 41.14322,0 41.14322,0 18.90113,-0.072 27.09113,-6.19461 28.74478,-19.300999 h -19.66403 c -0.33538,3.14953 -1.02472,6.26595 -2.44036,8.52359 -2.39573,3.820949 -5.13758,5.770949 -10.76228,5.785779 -3.93445,0.0103 -9.20177,-1.55627 -9.20177,-5.740389 0.0244,0.68093 -0.068,1.89581 -0.068,1.89581 -4e-5,8.363629 -4e-5,-4.04943 0,-10.46479 z m 70.05945,0 c -0.003,3.26815 -0.008,11.01689 -0.008,11.01689 0,3.798299 -3.63406,5.151479 -7.94377,5.130299 -0.85969,-0.003 -1.13474,0.53322 -1.14455,1.02102 0.0488,0.42492 0,1.12438 0,1.12438 0,0.46639 0.46696,0.9871 1.1017,1.00085 42.88379,0.0439 128.47928,-0.0429 128.47928,-0.0429 1.44589,-0.005 1.8713,-0.33508 2.06221,-1.70169 0.67005,-4.61193 1.62105,-11.489659 2.45548,-17.548889 h -6.58998 c -9.3e-4,0.001 -10e-4,0.004 -0.003,0.005 -3.49456,6.1587 -7.21903,10.34943 -12.49172,12.463969 -5.24857,2.10508 -9.96596,1.33952 -14.89172,0.82186 -5.09333,-0.53531 -5.26391,-3.416159 -5.26391,-11.735389 0.003,-0.41315 8.7e-4,-1.1107 0.003,-1.55548 h -19.76739 c -0.003,2.77148 -0.005,10.39925 -0.005,10.39925 0,4.075979 -3.63153,5.528919 -7.94124,5.513489 -0.25174,-2.8e-4 -0.443,0.0562 -0.60253,0.13867 0.40307,-4.241889 0.95541,-10.463749 1.4496,-16.051409 h -5.86644 c -2.1876,5.94218 -4.84096,11.02348 -9.62782,12.781619 -5.26277,1.93297 -13.52869,1.48234 -18.53461,0.42858 -5.01582,-1.05487 -5.11014,-2.605869 -5.11014,-10.303449 10e-4,-0.77392 -10e-4,-2.08268 0,-2.90675 z m 42.50205,37.938989 c -1.40115,0.0146 -2.92118,0.24977 -3.31263,1.46723 -8.72114,27.32273 -26.30444,79.79818 -26.30444,79.79818 -0.38589,1.14132 -1.13244,2.44275 -2.07985,3.67819 -1.66557,-1.89832 -3.2658,-4.29307 -4.84038,-7.37907 -4.69837,-9.25063 -14.23878,-27.5599 -14.23878,-27.5599 9.59985,-3.19043 14.3371,-9.61921 14.3371,-23.7708 0,-9.77594 -4.80677,-15.95301 -8.40007,-19.23546 -3.59136,-3.28048 -7.81155,-4.74937 -12.28499,-5.81097 -4.46665,-1.06009 -8.28039,-1.00808 -12.05556,-1.079 -11.86551,0.0493 -35.73561,-0.003 -35.73561,-0.003 -0.63465,0.0146 -1.10416,0.51932 -1.10421,0.97311 0.0488,0.4142 0,1.09665 0,1.09665 0.0103,0.47419 0.28491,0.99376 1.14454,0.98825 4.30981,-0.0244 7.94378,1.28084 7.94378,4.95634 0.0488,24.32051 0,72.79729 0,72.79729 0,3.67525 -3.63397,4.85106 -7.94378,4.69163 -0.85983,-0.0293 -1.13463,0.48178 -1.14454,0.95547 0.0488,0.41566 0,1.09414 0,1.09414 0,0.45418 0.46977,0.97024 1.10421,1.00336 11.96387,0.41613 35.73813,1.51261 35.73813,1.51261 0.63475,0.0195 1.10169,-0.46545 1.10169,-0.92774 0.0488,-0.31905 0,-1.11429 0,-1.11429 -0.0103,-0.48346 -0.28486,-1.0282 -1.14455,-1.06639 -4.30965,-0.19465 -7.94124,-1.68433 -7.94124,-5.38745 0.0488,-10.95738 0,-33.02045 0,-33.02045 4.11032,-0.13319 6.25677,1.4879 7.26813,3.78406 2.81016,6.31916 8.3194,18.99092 8.3194,18.99092 3.56847,8.1973 7.35552,13.27596 10.97404,15.3304 5.9284,3.55934 11.74561,5.59514 17.44301,6.03786 4.05022,0.33515 8.3051,0.40375 12.05305,0.72354 2.95202,0.30393 8.71016,0.76891 8.71016,0.76891 0.44834,0.039 0.64539,-0.2091 0.64539,-0.61261 0.0488,-0.35612 0,-1.23782 0,-1.23782 -0.0103,-0.50595 -0.24145,-0.65921 -0.68321,-0.69833 -4.32043,-0.35124 -10.39121,-5.88226 -9.21184,-9.40848 1.48589,-4.29684 4.32356,-13.14213 4.32356,-13.14213 7.75124,0.5539 23.10273,1.62354 23.10273,1.62354 1.9393,6.0041 5.70006,18.04805 5.70006,18.04805 1.22079,3.89094 -1.03316,4.37799 -5.33955,3.91517 -0.85958,-0.0907 -1.1346,0.44584 -1.14455,0.95798 0.0488,0.45371 0,1.18489 0,1.18489 0,0.4916 0.46933,1.08422 1.10422,1.16472 8.92129,0.97306 26.612,2.97481 26.612,2.97481 0.004,6.3e-4 0.0103,0.004 0.0151,0.005 11.96397,1.49618 35.73814,4.72189 35.73813,4.72189 0.63464,0.0742 1.10421,-0.45052 1.10421,-0.98321 0.0488,-0.36344 0,-1.2832 0,-1.2832 -0.0103,-0.558 -0.28531,-1.20683 -1.14453,-1.31849 -4.30967,-0.56362 -7.94378,-2.5657 -7.94378,-6.79418 0.0488,-27.9578 0,-84.03603 0,-84.03603 0,-4.22878 3.63411,-5.7312 7.94378,-5.67232 0.8599,0.0103 1.13458,-0.59543 1.14453,-1.15211 0.0488,-0.37028 0,-1.28321 0,-1.28321 0,-0.53258 -0.46976,-1.12312 -1.10421,-1.1395 -11.86627,0.0556 -35.73812,-0.005 -35.73813,-0.005 -0.63462,0.0146 -1.1042,0.57775 -1.1042,1.08404 0.0488,0.46248 0,1.22019 0,1.22019 0.0103,0.5293 0.2849,1.11281 1.14455,1.10924 4.30974,-0.0146 7.94376,1.45985 7.94376,5.60173 0.0488,27.36395 0,81.8982 0,81.8982 0,2.41768 -1.26338,3.74902 -3.15633,4.34877 -1.73377,-1.06638 -2.90087,-2.73433 -3.69836,-5.1202 -10.22978,-30.6867 -30.82967,-88.87138 -30.82967,-88.87138 -0.39955,-1.11199 -1.62651,-1.40941 -3.02776,-1.3916 z m -205.95055,0.10584 c -8.21261,0.0497 -24.7792,0.003 -24.7792,0.003 -5.99366,0.0502 -18.1237,0 -18.1237,0 0.019,0 -17.63369,0.003 -17.61443,0.003 -0.63436,0.0146 -1.1017,0.54059 -1.1017,1.01346 0.0488,0.43126 0,1.14203 0,1.14203 0.0103,0.49419 0.28247,1.03508 1.14203,1.02606 4.30968,-0.0439 7.94376,1.29828 7.94376,5.07735 0.0488,25.05911 0,75.01579 0,75.01579 0,3.77893 -3.63408,5.37423 -7.94376,5.65216 -0.85964,0.0565 -1.13212,0.61694 -1.14203,1.11176 0.0488,0.42785 0,1.13952 0,1.13952 0,0.4732 0.46722,0.9611 1.1017,0.92773 20.8775,-1.50795 62.47365,-3.39331 62.47365,-3.39331 1.44588,-0.0532 1.87379,-0.34022 2.06473,-1.48237 1.47291,-8.4735 4.26557,-25.48005 4.26557,-25.48005 0.12882,-0.76724 0.11075,-1.03622 -0.55966,-1.22522 -0.67059,-0.1888 -0.89645,-0.20954 -1.4143,0.39832 -0.5178,0.60756 -2.93674,6.55249 -6.43114,11.72784 -3.49594,5.17764 -7.21501,8.81393 -12.4892,10.79756 -5.28354,1.98717 -9.93105,1.5175 -14.89171,1.26556 -5.09335,-0.25855 -5.26392,-2.81432 -5.26392,-10.26563 0.0488,-9.21221 0,-27.77671 0,-27.77671 0,0 -0.0702,-0.77029 0.31008,-1.17229 0.38141,-0.40296 2.66818,-0.53973 4.47232,-0.58739 1.80637,-0.0488 5.17116,0.0918 7.68409,1.13698 2.51067,1.04415 3.92792,2.98977 6.15888,6.63284 2.23044,3.64208 3.82623,8.50457 4.20508,9.03032 0.37881,0.52586 0.7741,0.47205 1.43447,0.26471 0.66052,-0.20733 0.92017,-0.40059 0.92017,-1.22017 0.0488,-12.48323 0,-37.58857 0,-37.58857 0,-0.81964 -0.25983,-1.00559 -0.92017,-1.18741 -0.66034,-0.18197 -1.05571,-0.22036 -1.43447,0.32018 -0.37881,0.54073 -1.31444,3.92038 -3.44625,8.4883 -2.13247,4.56984 -3.9451,7.73958 -7.83789,9.23454 -3.89511,1.49589 -7.52228,1.59454 -8.27654,1.63614 -0.75058,0.039 -2.57957,0.22976 -2.95969,-0.15125 -0.38038,-0.3815 -0.31008,-1.15716 -0.31008,-1.15716 0.0488,-11.44587 0,-34.48013 0,-34.48013 0,-1.12244 0.56764,-1.48458 1.58573,-1.48741 6.72671,-0.0439 13.42955,-0.10958 18.29008,1.98152 4.85687,2.08991 7.64391,4.90761 10.74966,9.71102 3.10418,4.80116 4.43833,9.55407 4.87315,10.14715 0.43468,0.59292 0.62445,0.56426 1.18741,0.35546 0.56303,-0.20831 0.57692,-0.47806 0.46892,-1.24287 -0.83803,-7.91194 -2.66221,-23.92205 -2.66221,-23.92205 -0.1605,-1.13688 -0.51552,-1.41525 -1.72943,-1.41934 z m 36.13141,0 c -0.63464,0.0146 -1.10421,0.51706 -1.10421,0.96808 0.0488,0.41174 0,1.08655 0,1.08655 0.0103,0.47127 0.28491,0.99003 1.14455,0.9832 4.30981,-0.0293 7.94377,1.25823 7.94377,4.89081 0.0488,24.05785 0,72.01323 0,72.01323 0,3.63243 -3.63396,4.94694 -7.94377,4.96391 -0.85983,0.005 -1.13465,0.52445 -1.14455,0.99581 0.0488,0.41076 0,1.08657 0,1.08657 0,0.45125 0.46981,0.94422 1.10421,0.95042 11.96299,-0.0902 35.73561,0.003 35.73561,0.003 0.63469,-0.005 1.10422,-0.50194 1.10422,-0.95295 0.0488,-0.3132 0,-1.08657 0,-1.08657 -0.0103,-0.47125 -0.28492,-0.99258 -1.14455,-0.99581 -4.30972,-0.0195 -7.94378,-1.33148 -7.94378,-4.9639 0.0488,-9.54355 0,-28.77252 0,-28.77252 4.14692,1.65356 7.61247,2.35543 11.67489,2.4933 19.49637,0.66147 29.05236,-9.15486 29.05236,-28.53556 0,-9.39201 -4.8092,-15.31325 -8.40259,-18.47158 -3.59253,-3.15746 -7.80787,-4.58057 -12.28247,-5.6093 -4.4726,-1.02824 -8.27686,-0.97699 -12.05808,-1.04622 z m -99.83029,0.005 c -10.90139,0.0521 -32.84399,0.003 -32.84399,0.003 -0.63465,0.0146 -1.10168,0.55977 -1.10169,1.04875 0.0488,0.4459 0,1.17984 0,1.17984 0.0103,0.51107 0.28495,1.06884 1.14455,1.05883 4.30972,-0.0488 6.97821,1.34046 6.97821,5.24375 0.0488,11.34668 0,33.88013 0,33.88013 -7.21481,0.35612 -21.78927,0.98572 -21.78927,0.98572 0.0488,-11.5049 0,-34.66669 0,-34.66669 0,-4.00661 2.6685,-5.43337 6.97822,-5.41517 0.85978,0.003 1.13466,-0.5604 1.14455,-1.07397 0.0488,-0.34196 0,-1.18487 0,-1.18487 0,-0.49176 -0.46717,-1.03872 -1.10169,-1.0538 -2.95738,0.0149 -7.20385,0.0103 -11.12783,0.0129 v 97.22858 c 5.91619,-0.66614 11.12783,-1.24791 11.12783,-1.24791 0.63469,-0.0814 1.10169,-0.67331 1.10169,-1.16471 0.0488,-0.34687 0,-1.18489 0,-1.18489 -0.0103,-0.51243 -0.28486,-1.05074 -1.14455,-0.95799 -4.30972,0.4615 -6.97822,-0.66839 -6.97822,-4.67652 0.0488,-12.4624 0,-37.53058 0,-37.53058 7.31451,-0.35808 21.78927,-1.14707 21.78927,-1.14707 0.0488,12.27815 0,36.681 0,36.681 0,3.90474 -2.66849,5.53739 -6.97821,5.91182 -0.85985,0.0762 -1.13464,0.66042 -1.14455,1.17227 0.0488,0.44102 0,1.17984 0,1.17984 0,0.48941 0.46721,0.98543 1.10169,0.93784 10.99896,-1.02694 32.84399,-2.87399 32.84399,-2.87399 0.63466,-0.0639 1.10421,-0.62372 1.10421,-1.09665 0.0488,-0.33271 0,-1.1395 0,-1.1395 -0.0103,-0.49341 -0.28495,-1.01589 -1.14455,-0.94538 -4.30972,0.35027 -6.97568,-0.79584 -6.97568,-4.64375 0.0488,-25.33424 0,-76.13764 0,-76.13764 0,-3.84635 2.66596,-5.2143 6.97568,-5.19332 0.85978,0.003 1.13465,-0.53938 1.14455,-1.03362 0.0488,-0.3293 0,-1.14203 0,-1.14203 0,-0.47321 -0.46974,-0.99896 -1.10421,-1.01346 z m -74.69309,0.0103 c 0.0151,0 -66.43677,0.0103 -66.42159,0.0103 -1.07674,0.004 -1.45045,0.24938 -1.53531,1.30841 -0.6369,8.62488 -2.06221,25.84561 -2.06221,25.84561 -0.0569,0.7184 0.0337,1.23358 0.56976,1.51009 0.53403,0.27661 1.07911,0.23354 1.46471,-0.3353 0.3858,-0.56815 0.82975,-3.07671 2.60171,-8.86647 1.73415,-5.66626 5.34067,-10.05819 8.17067,-11.5917 2.82081,-1.5286 5.12921,-1.85479 9.711,-1.8958 1.51715,0.0439 4.40424,-0.0378 4.40424,-0.0378 0.0496,30.19445 0.003,90.40164 0.003,90.40164 0,4.3661 -3.63149,6.47424 -7.94126,7.09669 -0.85983,0.12585 -1.13463,0.79704 -1.14455,1.37397 0.0488,0.49443 0,1.32606 0,1.32606 0,0.55112 0.46721,1.08506 1.1017,1.00085 11.96387,-1.84017 35.73813,-5.25634 35.73813,-5.25634 0.63466,-0.10301 1.10421,-0.74425 1.10421,-1.26556 0.0488,-0.36931 0,-1.258 0,-1.258 -0.0103,-0.54341 -0.28495,-1.10816 -1.14455,-0.98825 -4.30972,0.59782 -7.94377,-0.40709 -7.94377,-4.6765 0.0488,-29.25818 0,-87.92095 0,-87.92095 1.51714,0.0439 4.40424,-0.0352 4.40424,-0.0352 4.58857,-0.0342 6.88347,0.24118 9.71102,1.61346 2.82063,1.36958 6.44587,5.35923 8.17066,10.42194 1.77196,5.2011 2.21609,7.42591 2.6017,7.91352 0.38579,0.48809 0.9307,0.48544 1.46472,0.19663 0.53404,-0.2888 0.62687,-0.7603 0.56976,-1.40421 -0.57029,-6.92668 -1.86053,-21.03044 -1.86053,-21.03044 4.04047,0.0551 6.53703,1.52813 6.53703,5.46307 0.0488,27.06837 0,81.03349 0,81.03349 0,4.08222 -2.66848,5.84987 -6.97821,6.33283 -0.85983,0.0981 -1.13464,0.71642 -1.14455,1.25295 0.0488,0.46151 0,1.2353 0,1.2353 0,0.51284 0.46971,1.02166 1.10421,0.958 5.15983,-0.61721 12.71954,-1.47726 19.27833,-2.21851 v -97.50337 c -9.76968,10e-4 -19.27833,-0.0103 -19.27833,-0.0103 -0.15694,0.004 -0.30412,0.0435 -0.43614,0.10843 -0.21558,-0.0649 -0.46969,-0.10791 -0.81932,-0.10843 z m 415.99021,0.0103 c -0.63464,0.0195 -1.10169,0.60691 -1.10169,1.1395 0.0488,0.48688 0,1.28572 0,1.28573 0.0103,0.55686 0.28248,1.1704 1.14203,1.16723 4.3099,-0.0146 7.94376,1.54053 7.94376,5.90677 0.0488,28.83726 0,86.30749 0,86.30749 0,4.36596 -3.63386,5.37118 -7.94376,4.72693 -0.85969,-0.12688 -1.13208,0.44302 -1.14203,0.99832 0.0488,0.49342 0,1.28574 0,1.28574 0,0.53248 0.46729,1.19477 1.10169,1.30336 11.96387,1.80275 35.73813,5.62946 35.73813,5.62946 0.63469,0.0893 1.10169,-0.45662 1.10169,-1.02101 0.0488,-0.38393 0,-1.35884 0,-1.35884 -0.0103,-0.59103 -0.28249,-1.28199 -1.14202,-1.41429 -4.30976,-0.66724 -7.94378,-2.84897 -7.94378,-7.31855 0.0488,-13.24638 0,-39.92809 0,-39.92809 4.11194,0.0732 6.25758,2.15548 7.27065,5.01685 2.82167,7.89818 8.31688,23.80106 8.31688,23.80106 3.56818,10.34425 7.35577,16.97838 10.97405,19.86571 5.92923,4.97124 11.74478,8.09341 17.44302,9.19421 4.02104,0.8025 8.31068,1.56505 12.01774,2.04203 8.59937,1.78992 25.64644,5.35719 25.64644,5.35719 0.63465,0.11707 1.1017,-0.48938 1.1017,-1.12691 0.0488,-0.43271 0,-1.5353 0,-1.5353 -0.0103,-0.66806 -0.28248,-1.45488 -1.14203,-1.62607 -4.30971,-0.86241 -7.94376,-3.41776 -7.94376,-8.45554 0.0488,-33.3321 0,-100.1933 0,-100.1933 0,-5.03808 3.63405,-6.82623 7.94376,-6.74881 0.85979,0.0146 1.13213,-0.71294 1.14203,-1.379 0.0488,-0.44297 0,-1.53531 0,-1.53531 0,-0.63722 -0.4669,-1.34165 -1.1017,-1.36136 -11.86629,0.0654 -35.73813,-0.0103 -35.73813,-0.0103 -0.63464,0.0195 -1.10421,0.67934 -1.10421,1.27564 0.0488,0.54487 0,1.4395 0,1.4395 0.0103,0.62348 0.28491,1.31099 1.14455,1.30843 4.30981,-0.0103 7.94377,1.73493 7.94377,6.63786 0.0488,32.3666 0,96.86808 0,96.86808 0,2.8887 -1.82485,5.26902 -3.20171,5.00929 -0.41711,-0.0786 -0.78866,-0.51641 -1.16724,-0.7916 -3.21667,-2.95906 -6.10498,-7.45741 -8.92193,-14.60937 -4.69846,-11.9813 -14.23876,-35.32217 -14.23876,-35.32217 9.59996,-3.43041 14.33709,-11.27862 14.33709,-29.05487 0,-12.2899 -4.80672,-20.07433 -8.40008,-24.18929 -3.58906,-4.11003 -7.81365,-5.93972 -12.28497,-7.25301 -4.45489,-1.30855 -8.29201,-1.23947 -12.05558,-1.32606 -0.0195,0 -35.71618,-0.005 -35.7356,-0.005 z m -506.83303,0.008 c -4.48577,0.0644 -13.60096,0.003 -13.60096,0.003 -4.48579,0.0658 -13.600956,0.003 -13.600956,0.003 -0.44818,1.6e-4 -0.64286,0.3411 -0.64286,0.85212 0.0488,0.58913 0,1.5706 0,1.5706 0.0103,0.63967 0.24105,0.8017 0.6832,0.79917 4.30972,-0.0644 9.675706,6.60697 9.675706,11.4001 0.0488,17.79995 0,53.20634 0,53.20634 -6.734006,-11.06554 -14.325306,-23.89851 -22.595996,-38.55915 -7.5432,-13.37113 -13.588352,-24.66072 -13.588352,-24.66072 0,0 -0.553456,-1.372 -1.487403,-2.56894 -0.933122,-1.19591 -2.225219,-2.03229 -3.569786,-2.03195 -7.61167,0.0721 -22.976671,0.005 -22.976671,0.005 -0.63467,0.0244 -1.101683,0.77228 -1.101683,1.44707 0.04879,0.61493 0,1.62607 0,1.62607 0.01033,0.70508 0.282407,1.47408 1.14202,1.45716 4.309718,-0.0806 7.943771,6.08208 7.943771,10.97404 0.04879,32.63881 0,97.70254 0,97.70254 0,5.27613 -5.366005,13.89293 -9.675724,14.84886 -0.261922,0.0611 -0.440332,0.18555 -0.5521,0.41093 -0.05757,-0.62912 -0.342608,-1.19483 -1.11934,-1.00588 -4.309783,1.04356 -7.943759,-0.0396 -7.943759,-5.59921 0.04879,-36.52849 0,-109.77324 0,-109.77324 0,-5.55762 3.633976,-7.5377 7.943759,-7.5278 0.85978,-4e-5 1.132145,-0.77693 1.142032,-1.48236 0.04879,-0.47029 0,-1.62858 0,-1.62858 0,-0.67461 -0.467167,-1.42644 -1.101696,-1.44708 -0.01704,0 -35.723608,0.0103 -35.740646,0.0103 v 0.003 C 0.467026,126.03312 0,126.83649 0,127.56167 c 0.04879,0.66085 0,1.74708 0,1.74708 0.01033,0.75768 0.284756,1.58396 1.14455,1.56556 4.309731,-0.0874 7.941254,1.94063 7.941254,7.66393 0.04879,38.02663 0,113.84974 0,113.84975 0,5.72314 -3.631523,8.69026 -7.941254,9.73621 -0.859832,0.21076 -1.134637,1.11049 -1.14455,1.87061 0.04879,0.6484 0,1.74708 0,1.74708 0,0.72572 0.467039,1.40342 1.101696,1.25799 11.964719,-3.07423 35.740646,-9.00008 35.740646,-9.00008 0.43575,-0.11953 0.779417,-0.56679 0.960512,-1.05127 0.02788,0.48736 0.218656,0.7671 0.632786,0.66808 4.587259,-1.02381 13.600961,-3.19163 13.600961,-3.19163 4.586265,-0.98468 13.59843,-3.07062 13.59843,-3.07062 0.448142,-0.099 0.645384,-0.49786 0.645384,-1.03362 0.04879,-0.48985 0,-1.64624 0,-1.64624 -0.01033,-0.66869 -0.241141,-0.79606 -0.68319,-0.70084 -4.309719,0.97028 -9.675724,-5.00382 -9.675724,-10.33874 0.04879,-28.37708 0,-85.31168 0,-85.31168 9.593063,17.83591 20.165973,36.58937 31.848183,56.01982 10.59426,17.62092 19.074116,30.72128 19.074116,30.72128 1.36844,2.13312 2.45897,3.77618 3.85718,3.29751 1.39753,-0.47858 1.45212,-1.96508 1.45212,-4.14206 0,-2.17732 0.003,-97.80591 0.003,-97.80589 0,-4.8425 5.36598,-11.3753 9.67571,-11.35725 0.44175,-0.003 0.67329,-0.16108 0.6832,-0.77144 0.0488,-0.43564 0,-1.49749 0,-1.49749 0,-0.48736 -0.19714,-0.81187 -0.64538,-0.81177 z m 619.43738,0.0103 v 0.003 c -0.6344,0.0195 -1.10421,0.72918 -1.10421,1.3664 0.0488,0.58235 0,1.54035 0,1.54035 0.0103,0.6663 0.28495,1.39904 1.14455,1.39665 4.3097,-0.0103 7.94376,1.85895 7.94376,7.10426 0.0488,34.62164 0,103.61436 0,103.61436 0,5.24506 -3.63406,6.29645 -7.94376,5.33954 -0.85955,-0.1888 -1.13465,0.48311 -1.14455,1.14707 0.0488,0.59269 0,1.54035 0,1.54035 0,0.63782 0.46932,1.44774 1.10421,1.6059 20.87751,4.64739 62.47366,14.9724 62.47366,14.9724 1.44603,0.36979 1.87378,0.048 2.06472,-1.69917 1.46071,-12.83556 4.26558,-39.3533 4.26558,-39.3533 0.12882,-1.19664 0.11075,-1.63047 -0.55967,-2.0748 -0.67064,-0.44394 -0.89629,-0.52446 -1.41429,0.33025 -0.5178,0.85413 -2.93674,9.77834 -6.43115,16.98671 -3.49592,7.21139 -7.21505,11.75949 -12.48919,13.21776 -5.24482,1.45014 -9.96972,-0.70129 -14.89172,-2.54623 -5.09334,-1.90926 -5.26392,-5.67334 -5.26392,-16.47242 0.0488,-13.35497 0,-40.29615 0,-40.29615 0,0 -0.0679,-1.12923 0.31261,-1.65128 0.38101,-0.52268 2.66641,-0.35624 4.46979,-0.13866 1.8026,0.21759 5.17504,0.95413 7.6841,2.92439 2.50565,1.9676 3.93539,5.13787 6.1614,11.06733 2.23044,5.94127 3.82374,13.72862 4.20256,14.61694 0.37906,0.88837 0.77411,0.89183 1.43447,0.71849 0.66049,-0.17318 0.92017,-0.41373 0.92017,-1.67649 0.0488,-19.21721 0,-57.88286 0,-57.88286 0,-1.26231 -0.25997,-1.56975 -0.92017,-1.90085 -0.66036,-0.33125 -1.05561,-0.41996 -1.43447,0.37816 -0.37906,0.79807 -1.31455,5.9157 -3.44625,12.62279 -2.13088,6.70471 -3.9467,11.242 -7.83789,12.91777 -3.87445,1.66859 -7.54286,1.26431 -8.27654,1.21513 -0.75105,-0.0541 -2.57645,-0.0452 -2.95717,-0.65547 -0.38053,-0.60986 -0.31261,-1.72439 -0.31261,-1.72439 0.0488,-16.60204 0,-50.02228 0,-50.02228 0,-1.62727 0.56768,-2.14737 1.58574,-2.13531 6.70275,0.0439 13.45363,0.0285 18.29007,3.30507 4.8484,3.28468 7.65251,7.74478 10.74967,15.39088 3.10428,7.66359 4.43833,15.29548 4.87315,16.27074 0.43468,0.97531 0.6244,0.95278 1.1874,0.67564 0.56309,-0.27613 0.57693,-0.70616 0.46893,-1.92607 -0.84258,-12.66056 -2.66221,-37.86084 -2.66221,-37.86084 -0.16051,-1.78938 -0.51547,-2.22681 -1.72944,-2.23363 -8.21254,0.0746 -24.7792,-0.008 -24.7792,-0.008 -5.99363,0.0721 -18.12369,-0.005 -18.12369,-0.005 0.0244,0 -17.63922,-0.005 -17.61444,-0.005 z m -324.42134,4.31095 v 0.003 c 2.10375,-0.004 4.75713,0.0556 7.30595,0.64791 3.61882,0.84066 5.59373,2.88783 7.30595,5.66223 2.51735,4.07929 4.00756,8.23642 3.9202,14.52114 -0.0946,6.8149 -0.66026,14.01005 -4.33113,18.54217 -2.299,2.43291 -4.56832,3.26903 -7.58831,3.24961 -3.65087,-0.33222 -8.60349,-1.96049 -8.511,-5.55887 0.0488,-12.30463 0,-37.0541 0,-37.0541 0.55542,1.4e-4 1.19701,-0.008 1.89834,-0.0129 z m 64.90394,0.0958 c 2.10257,3.5e-4 4.75844,0.068 7.30594,0.68068 3.61911,0.87037 5.63023,2.954 7.30595,5.8387 2.05214,3.53263 3.9202,7.92479 3.9202,13.05643 0,4.51967 -0.6577,11.88134 -4.32861,16.47493 -2.2986,2.45969 -4.56872,3.26625 -7.5883,3.18658 -3.65112,-0.41272 -8.60346,-2.17543 -8.511,-5.84123 0.0488,-11.08125 0,-33.386 0,-33.386 0.55542,0.001 1.19443,-0.005 1.89582,-0.0103 z m 176.56289,0.96051 v 0.003 c 2.10019,0.0103 4.76088,0.10546 7.30595,0.86723 3.61953,1.08351 5.6297,3.65068 7.30594,7.2152 2.05209,4.36385 3.9202,9.80944 3.9202,16.13963 0,5.56699 -0.65768,14.6381 -4.32861,20.11026 -2.2979,2.91427 -4.56938,3.78289 -7.5883,3.53448 -3.6512,-0.68596 -8.60316,-3.07468 -8.511,-7.4925 0.0488,-13.39867 0,-40.3743 0,-40.3743 0.55542,0.005 1.19444,-0.003 1.89582,-0.003 z m -107.28498,28.74984 c 3.30528,10.04218 9.85218,30.5322 9.85218,30.5322 -6.39935,-0.38638 -19.33629,-1.24791 -19.33629,-1.24791 3.16134,-9.67659 6.32275,-19.43442 9.48411,-29.28429 z"
   id="path1681-4-7-2-9-6" /><g
   style="display:inline;fill:#ffffff"
   id="swoosh-9-0"
   transform="matrix(0.99973378,0,0,0.99973378,-26.025567,-285.0982)"><path
     inkscape:connector-curvature="0"
     d="m 823.082,580.892 c -0.915,-0.275 -139.408,-43.898 -396.473,-43.898 -257.065,0 -395.558,43.623 -396.473,43.898 14.968,-4.623 146.376,-54.681 396.473,-54.681 250.096,0 381.505,50.058 396.473,54.681 z"
     id="path1067-8-7"
     style="fill:#ffffff" /></g><g
   style="display:inline;fill:#ffffff"
   id="eleven-8-6"
   transform="matrix(0.99973378,0,0,0.99973378,-26.025567,-285.0982)"><g
     id="g1082-6-6"
     style="fill:#ffffff"><path
       inkscape:connector-curvature="0"
       d="m 209.891,573.393 v 6.788 h 8.572 c 1.709,0 3.035,-0.212 3.979,-0.636 v 5.988 c -0.561,-0.465 -1.62,-0.711 -3.179,-0.738 h -9.372 v 7.362 h 10.377 c 0.943,0 2.27,-0.321 3.979,-0.964 l -0.923,5.578 h -25.245 c 0.725,-0.971 1.114,-2.352 1.169,-4.143 V 572.92 c -0.055,-1.791 -0.444,-3.172 -1.169,-4.143 h 24.65 l 0.82,5.25 c -0.848,-0.287 -1.507,-0.462 -1.979,-0.522 -0.472,-0.063 -1.459,-0.1 -2.963,-0.113 h -8.716 z"
       id="path1070-2-8"
       style="fill:#ffffff" /><path
       inkscape:connector-curvature="0"
       d="m 310.219,591.111 -0.902,5.66 h -24.466 c 0.725,-0.971 1.114,-2.352 1.169,-4.143 V 572.92 c -0.055,-1.791 -0.444,-3.172 -1.169,-4.143 h 12.981 c -0.725,0.93 -1.114,2.311 -1.169,4.143 v 19.236 h 10.008 c 1.517,-0.026 2.7,-0.375 3.548,-1.045 z"
       id="path1072-3-6"
       style="fill:#ffffff" /><path
       inkscape:connector-curvature="0"
       d="m 382.247,573.393 v 6.788 h 8.572 c 1.709,0 3.035,-0.212 3.979,-0.636 v 5.988 c -0.561,-0.465 -1.62,-0.711 -3.179,-0.738 h -9.372 v 7.362 h 10.377 c 0.943,0 2.27,-0.321 3.979,-0.964 l -0.923,5.578 h -25.245 c 0.725,-0.971 1.114,-2.352 1.169,-4.143 V 572.92 c -0.055,-1.791 -0.444,-3.172 -1.169,-4.143 h 24.65 l 0.82,5.25 c -0.848,-0.287 -1.507,-0.462 -1.979,-0.522 -0.472,-0.063 -1.459,-0.1 -2.963,-0.113 h -8.716 z"
       id="path1074-7-7"
       style="fill:#ffffff" /><path
       inkscape:connector-curvature="0"
       d="m 475.172,591.029 6.705,-17.862 c 0.41,-1.066 0.615,-2.03 0.615,-2.892 0,-0.451 -0.074,-0.95 -0.225,-1.497 h 7.074 c -0.615,0.533 -1.086,1.091 -1.414,1.671 -0.328,0.582 -0.787,1.658 -1.375,3.23 l -8.859,23.092 h -11.709 l -8.471,-23.769 c -0.588,-1.668 -1.271,-3.076 -2.051,-4.225 h 13.064 c -0.191,0.588 -0.287,1.08 -0.287,1.477 0,0.834 0.205,1.832 0.615,2.994 z"
       id="path1076-8-2"
       style="fill:#ffffff" /><path
       inkscape:connector-curvature="0"
       d="m 560.16,573.393 v 6.788 h 8.572 c 1.709,0 3.035,-0.212 3.979,-0.636 v 5.988 c -0.561,-0.465 -1.621,-0.711 -3.18,-0.738 h -9.371 v 7.362 h 10.377 c 0.943,0 2.27,-0.321 3.979,-0.964 l -0.924,5.578 h -25.244 c 0.725,-0.971 1.113,-2.352 1.168,-4.143 V 572.92 c -0.055,-1.791 -0.443,-3.172 -1.168,-4.143 h 24.65 l 0.82,5.25 c -0.848,-0.287 -1.508,-0.462 -1.979,-0.522 -0.473,-0.063 -1.461,-0.1 -2.965,-0.113 h -8.714 z"
       id="path1078-7-7"
       style="fill:#ffffff" /><path
       inkscape:connector-curvature="0"
       d="m 649.926,568.778 10.768,22.313 v -18.17 c -0.055,-1.832 -0.445,-3.213 -1.17,-4.143 h 6.953 c -0.725,0.93 -1.115,2.311 -1.17,4.143 v 23.851 h -13.535 l -11.279,-22.784 v 18.642 c 0.055,1.818 0.445,3.199 1.17,4.143 h -6.953 c 0.725,-0.971 1.115,-2.352 1.17,-4.143 v -19.708 c -0.055,-1.791 -0.445,-3.172 -1.17,-4.143 h 15.216 z"
       id="path1080-9-0"
       style="fill:#ffffff" /></g></g></svg>